<svg width="48" height="14" viewBox="0 0 48 14" fill="none" xmlns="http://www.w3.org/2000/svg">
<path fill-rule="evenodd" clip-rule="evenodd" d="M11.1665 5.13391H10.6753L10.6746 5.13459H9.97613L8.03901 1.10036V5.13391H5.2942L4.72948 4.03355H1.98467L1.41922 5.13391H0L2.38815 0H4.40626L6.6666 4.91384V0H8.80509L8.84298 0.0735827H8.84595L9.86467 2.08799L10.5958 3.59678L10.6218 3.52049L12.2365 0H14.4166V5.13391H13.1252V1.09969L13.0442 1.26778V1.26576L11.1665 5.13391ZM3.35634 0.880292L2.4684 2.93386H4.24428L3.35634 0.880292ZM16.8389 4.1078H19.9872V5.20749H15.4665V0H19.9872V1.10037H16.8389V2.05356H19.9062V3.08035H16.8389V4.1078ZM22.2475 3.30042H23.7009C24.0813 3.30042 24.3109 3.30177 24.432 3.37265C24.516 3.40506 24.5933 3.45096 24.6698 3.51982C24.912 3.81347 24.912 4.25362 24.912 4.5466V5.13391H26.1224V4.10713C26.1224 4.06257 26.121 4.0214 26.1195 3.98089V3.97482L26.1193 3.9711L26.1191 3.96908C26.1189 3.96722 26.1187 3.96536 26.1187 3.96334C26.1187 3.95715 26.1181 3.95097 26.1174 3.94427L26.1172 3.94241C26.1113 3.54075 25.9857 3.26667 25.8312 3.08237C25.8089 3.05402 25.7829 3.02499 25.7524 2.99529L25.7504 2.99416L25.7474 2.99236L25.745 2.99056C25.5035 2.76239 25.2338 2.71311 25.2338 2.71311C25.6306 2.56864 26.1819 2.14065 26.2005 1.35959C26.1915 0.792533 25.9523 0.434745 25.557 0.219398C25.1535 0 24.6691 0 23.9431 0H20.8751V5.13391H22.2475V3.30042ZM22.2467 1.10036H23.8614C24.1036 1.10036 24.3458 1.10036 24.5078 1.17327C24.6103 1.21985 24.7129 1.29749 24.753 1.42305H24.7538C24.7545 1.42609 24.7549 1.42879 24.7552 1.43149C24.7556 1.43419 24.756 1.43689 24.7567 1.43993C24.7619 1.46085 24.7671 1.48313 24.7686 1.50676C24.8139 1.76531 24.73 1.955 24.6572 2.05964C24.6393 2.08934 24.6178 2.11567 24.594 2.13795C24.5888 2.14333 24.5842 2.14782 24.5808 2.15115L24.5808 2.15117L24.5808 2.15121L24.5806 2.15132C24.5769 2.15497 24.5747 2.15717 24.5747 2.15753C24.5539 2.17373 24.5323 2.18925 24.5078 2.20005C24.3458 2.27364 24.1036 2.27364 23.8614 2.27364H22.2467V1.10036ZM19.4225 8.80191H23.7002C24.5302 8.80191 25.4604 8.98823 25.8126 9.75579C25.855 9.90768 25.8795 10.0771 25.8795 10.2688C25.8795 11.7358 24.7494 12.0294 23.5389 12.0294H21.9243V13.9365H19.2709L17.7268 12.3231L17.7216 12.3285L17.6458 12.2495L15.87 13.9365H10.7036V8.80259H15.9509L17.3843 10.229L17.686 10.5274L17.7268 10.4889L19.4225 8.80191ZM11.914 12.9097H15.2235L16.7572 11.3692L15.3045 9.8287H11.914V10.7826H14.901V11.8094H11.914V12.9097ZM18.4535 11.3692L20.5526 13.4957V9.31564L18.4535 11.3692ZM21.925 11.1485H23.7009V11.1478C24.1854 11.1478 24.5086 10.9284 24.5086 10.4882C24.4276 10.0481 24.1044 9.82802 23.6199 9.82802H21.925V11.1485ZM31.7734 5.20749H33.307L33.7915 4.03422H36.6173L37.1018 5.13459H38.4742V5.13796H39.8377V4.46694L39.8458 4.47437V1.24686L42.4294 5.13459H44.2053V0.0735827H42.8321V3.66698L40.4915 0.0735827H38.4734V4.98742L36.2138 0.0735827H34.1957L32.3388 4.10713H31.7741C31.3707 4.10713 31.0482 4.03355 30.8052 3.81347C30.4827 3.51982 30.4017 3.15325 30.4017 2.56662C30.4017 2.05356 30.563 1.61342 30.8052 1.39335C31.1284 1.1726 31.3707 1.09969 31.8551 1.09969H33.1473V0H31.8551C30.9672 0 30.2405 0.14649 29.837 0.586636C29.2723 1.17327 29.1103 1.90707 29.1103 2.6402C29.1103 3.5934 29.3525 4.18004 29.837 4.62018C30.3215 5.06033 31.1292 5.20682 31.7741 5.20682L31.7734 5.20749ZM35.2449 0.880292L36.1328 2.93386H34.276L35.2449 0.880292ZM31.1284 8.9479C31.5319 9.16864 31.8544 9.53521 31.8544 10.1218V10.1212C31.8544 10.9272 31.2889 11.3673 30.8854 11.5145C31.2896 11.661 31.5311 11.8082 31.6121 11.9547C31.7734 12.1741 31.8544 12.4684 31.8544 12.9085V13.9353H30.482V13.2751C30.482 12.9808 30.482 12.4677 30.2397 12.2476C30.0792 12.0282 29.7553 12.0282 29.2715 12.0282H27.8189V13.9353H26.4465V8.72782H29.5138C30.1587 8.72782 30.7242 8.72782 31.1284 8.9479ZM30.1595 11.0015C30.3207 10.9286 30.4017 10.7078 30.4017 10.4884C30.4827 10.1947 30.3207 10.0483 30.1595 9.97468C29.9982 9.90109 29.7553 9.90109 29.5138 9.90109H27.8991V11.075H29.5138C29.756 11.075 29.9982 11.075 30.1595 11.0015ZM32.662 13.9353H37.1827V12.835H34.0337V11.8082H37.1017V10.7814H34.0337V9.82751H37.1827V8.72782H32.662V13.9353ZM45.9826 10.7816C46.3348 10.7816 46.6016 10.8215 46.846 10.8991H46.8453C47.069 10.9727 47.809 11.2738 47.9747 12.0589C47.9896 12.1412 48 12.227 48 12.3221C48 12.7623 47.838 13.1289 47.5155 13.4218C47.193 13.7155 46.6276 13.9356 45.8199 13.9356H43.2371V12.8352H45.8199C46.0621 12.8352 46.2241 12.8352 46.3854 12.688C46.4656 12.6144 46.5466 12.4686 46.5466 12.3215C46.5466 12.1743 46.4656 12.0285 46.3854 11.9549C46.3044 11.882 46.1431 11.8084 45.9009 11.8084C45.7941 11.8023 45.6857 11.7973 45.5766 11.7921C44.3662 11.7355 43.0751 11.675 43.0751 10.195C43.0751 9.49832 43.5142 8.86848 44.5968 8.68149C44.7261 8.66461 44.8629 8.65448 45.013 8.65448H47.6775V9.90134H45.1749C44.9327 9.90134 44.7715 9.90134 44.6102 9.97492C44.5292 10.0478 44.4482 10.195 44.4482 10.3415C44.4482 10.5616 44.5292 10.6351 44.7715 10.708C44.9327 10.7816 45.0947 10.7816 45.2559 10.7816H45.9826ZM40.7345 10.7816H40.0078C39.8466 10.7816 39.6854 10.7816 39.5234 10.708C39.3621 10.6351 39.2009 10.5616 39.2009 10.3415C39.2009 10.195 39.2009 10.0478 39.3621 9.97492C39.5234 9.90134 39.6854 9.90134 39.9276 9.90134H42.4302V8.65448H39.7664C38.313 8.65448 37.8285 9.46119 37.8285 10.195C37.8285 11.6751 39.1191 11.7355 40.3299 11.7921L40.33 11.7922C40.4391 11.7973 40.5475 11.8023 40.6543 11.8084C40.8965 11.8084 41.0578 11.882 41.1388 11.9549C41.2198 12.0285 41.3 12.1743 41.3 12.3215C41.3 12.4686 41.2198 12.6144 41.1388 12.688C40.9768 12.8352 40.8148 12.8352 40.5733 12.8352H37.9897V13.9356H40.5733C41.9457 13.9356 42.6724 13.4218 42.6724 12.3221C42.6724 11.8091 42.5112 11.4419 42.2689 11.2218C41.9457 10.9281 41.462 10.7816 40.7353 10.7816H40.7345ZM27.0915 0H28.4639V5.13391H27.0915V0Z" fill="#171716"/>
</svg>
