<svg width="45" height="17" viewBox="0 0 45 17" fill="none" xmlns="http://www.w3.org/2000/svg">
<path fill-rule="evenodd" clip-rule="evenodd" d="M8.51015 3.49903C7.95674 3.49903 7.42333 3.58783 6.92325 3.75435L5.81198 0.437378C6.66099 0.153193 7.56557 0 8.51015 0C12.6285 0 16.0646 2.92178 16.8514 6.80268L13.4175 7.50204C12.9553 5.21746 10.9327 3.49903 8.51015 3.49903ZM5.1941 12.2466L2.87154 14.8687C1.11128 13.3101 0 11.0344 0 8.49893C0 5.96568 1.11128 3.68999 2.87154 2.13141L5.1941 4.75568C4.15839 5.6704 3.50496 7.00918 3.50496 8.49893C3.50496 9.9909 4.15839 11.3297 5.1941 12.2466ZM13.4175 9.50252C12.953 11.7849 10.9327 13.5011 8.51238 13.5011C7.95674 13.5011 7.42111 13.4123 6.92325 13.2435L5.81198 16.565C6.66099 16.8469 7.56779 17.0001 8.51238 17.0001C12.6263 17.0001 16.0602 14.0828 16.8514 10.2063L13.4175 9.50252ZM19.4962 11.6672C19.5896 11.8826 19.7407 12.1734 19.854 12.3555L29.2243 8.27475C29.1978 8.21058 29.1713 8.14173 29.1441 8.07122C29.1121 7.98803 29.0792 7.90252 29.0443 7.81961C28.5309 6.62515 27.8552 5.78147 26.9018 5.2353C25.3993 4.34501 23.6679 4.21401 22.101 4.88673C20.8542 5.42402 19.8896 6.47417 19.3851 7.84847C18.9272 9.10066 18.9517 10.4061 19.4962 11.6672ZM21.4165 9.65571C21.2965 8.4346 21.8699 7.39111 22.9834 6.91377C24.2636 6.36316 25.3171 6.67843 26.1283 7.62867L21.4165 9.65571ZM26.7128 11.3253C26.7128 11.3253 26.7128 11.3231 26.7151 11.3231L28.5331 12.5375C28.0175 13.3435 27.2618 13.9784 26.2994 14.3958C24.9681 14.9731 23.6168 14.9997 22.2966 14.4513C21.9632 14.3115 21.6454 14.1383 21.3476 13.9318L22.5433 12.1445C22.5456 12.1445 22.5456 12.1468 22.5456 12.1468L22.61 12.0491C23.3123 12.6641 24.288 12.7817 25.3415 12.3244C25.8949 12.0846 26.3328 11.7138 26.615 11.2587L26.7128 11.3253ZM32.4981 12.1912V2.25802H30.2911V12.2178C30.2911 12.7551 30.4312 13.157 30.6201 13.4478C30.8157 13.7342 31.0779 13.9873 31.4602 14.1538L33.1671 14.8643L34.045 12.8173L32.4981 12.1912ZM37.47 7.54209C36.8788 8.05717 36.5032 8.81648 36.5032 9.66237C36.5032 10.506 36.8743 11.2609 37.4633 11.7782L35.8786 13.5455C34.8051 12.5952 34.1273 11.2054 34.1295 9.65793C34.1295 8.11268 34.8074 6.72505 35.8831 5.77481L37.47 7.54209ZM38.4279 12.3333C38.7079 12.4265 39.0102 12.4798 39.3214 12.4798C40.6838 12.482 41.8195 11.5185 42.084 10.233L44.4132 10.7081C43.9265 13.0726 41.8306 14.8532 39.3191 14.851C38.7413 14.851 38.1879 14.7555 37.67 14.5823L38.4279 12.3333ZM37.6811 4.73798C38.199 4.56703 38.7524 4.47378 39.328 4.47378C41.8417 4.476 43.9376 6.26325 44.4154 8.6322L42.0862 9.10288C41.8284 7.81517 40.6905 6.84717 39.3258 6.84494C39.0146 6.84494 38.7146 6.89601 38.4323 6.98926L37.6811 4.73798Z" fill="#171716"/>
</svg>
