<svg width="46" height="11" viewBox="0 0 46 11" fill="none" xmlns="http://www.w3.org/2000/svg">
<path fill-rule="evenodd" clip-rule="evenodd" d="M44.7768 0.161664L44.7945 0.000258249L44.7951 0H46V0.0193687C46.0003 0.0299569 45.9696 0.172252 45.9321 0.335724C45.8947 0.499196 45.8249 0.81865 45.7773 1.04591C45.7294 1.27317 45.6576 1.62181 45.6177 1.82066C45.5869 1.97383 45.5387 2.21235 45.4979 2.41453L45.494 2.43369L45.4918 2.44483L45.4917 2.44516L45.464 2.58249C45.4192 2.80252 45.3446 3.1744 45.2981 3.40889C45.2514 3.64338 45.1819 4.00338 45.1433 4.20946C45.1047 4.41529 45.0462 4.72338 45.013 4.89382C44.98 5.06427 44.9223 5.38966 44.8849 5.61692C44.8474 5.84418 44.779 6.32633 44.7329 6.68866L44.6487 7.34719V7.69583H43.5443L43.5629 7.52151C43.573 7.4257 43.5927 7.28909 43.6062 7.21807C43.6197 7.14705 43.6372 7.03084 43.6451 6.95982L43.6592 6.83069L43.6428 6.86943C43.6338 6.89087 43.5575 6.99236 43.4734 7.0954L43.3202 7.28263L43.1749 7.39987L43.0297 7.51712L42.8608 7.5964C42.7679 7.64005 42.6285 7.69221 42.5511 7.71236C42.4737 7.7325 42.2963 7.76607 42.157 7.78673L41.9036 7.82444L41.6362 7.82134C41.4889 7.81953 41.2902 7.80868 41.1942 7.79732C41.0982 7.78596 40.9397 7.75652 40.8423 7.73198C40.7449 7.70745 40.5889 7.6527 40.496 7.61035L40.3271 7.53339L40.2032 7.44042L40.0794 7.34745L39.971 7.2129L39.8626 7.07835L39.8032 6.94148C39.7706 6.86607 39.7269 6.75219 39.7061 6.6884L39.6684 6.57219L39.6366 6.24937L39.6047 5.92656L39.6473 5.5255L39.6898 5.12444L39.7759 4.81532C39.8232 4.64513 39.8958 4.42484 39.9366 4.32542C39.9775 4.22599 40.0799 4.01319 40.1641 3.85256L40.3173 3.56048L40.4476 3.38952C40.5191 3.29552 40.6545 3.14315 40.748 3.05122L40.9183 2.88387L41.1154 2.7501L41.3124 2.61632L41.5799 2.49675L41.8473 2.37718L42.1288 2.31185L42.4103 2.24651L42.72 2.21991L43.0297 2.19357L43.3957 2.21965L43.7616 2.24574L44.0291 2.30746C44.1763 2.34129 44.3179 2.37718 44.3441 2.38751L44.3917 2.40611L44.4066 2.32011C44.4147 2.27285 44.4595 2.02493 44.5057 1.76927C44.5518 1.5136 44.6279 1.08361 44.6743 0.813743C44.7208 0.543873 44.7669 0.250502 44.7768 0.161664ZM44.1687 3.57701C44.2011 3.40657 44.2346 3.23535 44.243 3.19635H44.2427L44.2582 3.12559L44.1786 3.09718C44.1346 3.08143 43.9784 3.03804 43.8314 3.0006L43.564 2.93242L43.0995 2.93268H42.635L42.4137 3.00292L42.1924 3.07317L42.0663 3.14418C41.9971 3.18318 41.8802 3.2684 41.8068 3.33322C41.7333 3.39804 41.6221 3.51426 41.5599 3.59147C41.4977 3.66869 41.4067 3.80143 41.3583 3.88665C41.3099 3.97187 41.2319 4.12011 41.1855 4.21644C41.139 4.31276 41.1007 4.40573 41.1004 4.42304C41.1002 4.4406 41.0683 4.54777 41.0295 4.6614L40.9588 4.868L40.9135 5.16499L40.8682 5.46197L40.8648 5.7977L40.8614 6.13342L40.9006 6.30128L40.9397 6.46914L41.0256 6.6197L41.1114 6.77026L41.2268 6.85704L41.3423 6.94381L41.4794 6.99778C41.5548 7.02748 41.6812 7.0626 41.76 7.07551L41.9036 7.09927L42.1162 7.08894L42.3287 7.07861L42.5525 7.01353L42.7763 6.94845L42.9311 6.85394C43.0164 6.80203 43.1285 6.72352 43.1803 6.6791C43.2321 6.63468 43.3143 6.5461 43.3627 6.48231C43.4114 6.41853 43.486 6.2987 43.5285 6.21632C43.571 6.13394 43.6242 6.0061 43.6465 5.93224C43.6687 5.85838 43.7124 5.71067 43.743 5.60427C43.7737 5.49787 43.8317 5.25356 43.8717 5.06194C43.9117 4.87032 43.9815 4.52737 44.0271 4.30011C44.0727 4.07285 44.1363 3.74745 44.1687 3.57701ZM9.15781 1.34407L9.03985 1.29501L8.97848 1.18499L8.91739 1.07498L8.92978 0.853916L8.94216 0.632596L9.00804 0.490559L9.07363 0.348522L9.15724 0.266399L9.24086 0.184017L9.38499 0.124878L9.52913 0.0657392H9.74083H9.95253L10.0505 0.121521L10.1485 0.177045L10.2048 0.262783L10.2611 0.348522L10.2588 0.568034L10.2566 0.787546L10.1932 0.936556L10.1299 1.08582L10.0097 1.19765L9.88947 1.30947L9.7535 1.35208L9.61753 1.39443L9.44664 1.39392L9.27576 1.3934L9.15781 1.34407ZM25.8543 3.12482C25.845 3.12482 25.7659 3.10519 25.6783 3.08117H25.6781L25.519 3.03753L25.1953 3.03598L24.8715 3.03443L24.6598 3.12714L24.4481 3.21985L24.2764 3.36576L24.1047 3.51167L23.9763 3.68625C23.9056 3.78206 23.8026 3.95096 23.7474 4.06097C23.6922 4.17098 23.6469 4.27712 23.6469 4.29649C23.6469 4.31586 23.6281 4.38094 23.605 4.44086C23.5819 4.50103 23.5138 4.77839 23.4532 5.05755C23.393 5.33672 23.3046 5.78582 23.257 6.05569C23.2097 6.32556 23.1447 6.70002 23.1132 6.88777C23.0816 7.07551 23.0476 7.33402 23.0377 7.46237L23.0197 7.69557H22.4187H21.8176V7.67284C21.8176 7.66045 21.8356 7.57032 21.8576 7.4727C21.8796 7.37508 21.9364 7.11528 21.9837 6.895C22.031 6.67471 22.1076 6.31471 22.1535 6.09443C22.1994 5.87414 22.2692 5.53712 22.3086 5.3455C22.348 5.15388 22.4178 4.78768 22.4637 4.53202C22.5096 4.27635 22.5794 3.88123 22.6188 3.65397C22.6582 3.42671 22.7219 3.06258 22.7607 2.84462C22.7993 2.62665 22.8311 2.42057 22.8311 2.38622V2.32399H23.9045L23.8896 2.36918C23.8814 2.39397 23.8482 2.55383 23.8158 2.72427C23.7835 2.89472 23.746 3.08066 23.7325 3.13747L23.708 3.24077L23.7483 3.18912C23.7705 3.16071 23.8538 3.05612 23.9335 2.9567C24.0132 2.85727 24.1401 2.7204 24.2156 2.65248C24.291 2.58456 24.4214 2.48875 24.505 2.43968C24.5886 2.39061 24.7246 2.3276 24.8068 2.29997C24.889 2.27234 25.0387 2.23618 25.1392 2.21991L25.3222 2.19021L25.463 2.20622C25.5404 2.215 25.6955 2.2478 25.8078 2.27905C25.9202 2.31056 26.0119 2.34335 26.0119 2.35239C26.0119 2.36143 25.9804 2.51147 25.9416 2.68579C25.9027 2.86011 25.8712 3.0303 25.8712 3.06387C25.8712 3.09744 25.8636 3.12482 25.8543 3.12482ZM21.488 2.91857L21.5617 3.0353L21.5623 3.03452L21.6068 3.21091L21.6512 3.38729L21.6504 3.62359L21.6495 3.85989L21.6084 4.14086C21.5859 4.2953 21.5459 4.50448 21.5201 4.60571L21.4728 4.78959L19.9067 4.78029L18.3406 4.77099L17.9169 4.78907L17.4932 4.80715L17.4448 5.09509L17.3964 5.38304L17.3972 5.70585V6.02867L17.4516 6.20324L17.5059 6.37782L17.5926 6.51701L17.6793 6.65621L17.7905 6.74841L17.9017 6.8406L18.0366 6.90181C18.1109 6.93538 18.2474 6.98522 18.3403 7.01234L18.5092 7.06192L19.0019 7.06115L19.4945 7.06037L19.8045 7.00536L20.1144 6.95036L20.4097 6.861C20.5722 6.81193 20.7524 6.75073 20.8103 6.72516L20.9156 6.67868L20.9308 6.69262L20.946 6.70657L20.8773 7.01363C20.8396 7.18252 20.8008 7.37311 20.7915 7.43716L20.7743 7.55363L20.43 7.6231C20.2406 7.66132 19.9464 7.71064 19.776 7.73259C19.6057 7.75455 19.327 7.78424 19.1567 7.79845L18.847 7.82427L18.5374 7.82092C18.3671 7.81911 18.1402 7.80749 18.0329 7.79483C17.9256 7.78218 17.7342 7.74886 17.6072 7.72071L17.3764 7.66958L17.2109 7.60037C17.1199 7.56241 16.982 7.48803 16.9046 7.43509C16.8272 7.38215 16.7115 7.2884 16.6478 7.22643C16.5842 7.16445 16.4995 7.0614 16.4598 6.99762C16.4201 6.93383 16.3621 6.81762 16.3306 6.73937C16.299 6.66112 16.2543 6.52192 16.2306 6.42947L16.1878 6.26161L16.187 5.87733V5.49306L16.2317 5.23171C16.2565 5.08786 16.3066 4.85415 16.3432 4.71211C16.3798 4.57007 16.4423 4.36657 16.482 4.26017C16.5217 4.15378 16.5808 4.00838 16.6135 3.93736C16.6461 3.86634 16.7176 3.72689 16.7725 3.62746C16.8274 3.52804 16.9237 3.37696 16.9865 3.29174C17.0493 3.20652 17.1644 3.07843 17.2421 3.00715C17.3198 2.93587 17.4406 2.83541 17.5101 2.7835C17.5797 2.73185 17.719 2.64663 17.8198 2.59421C17.9206 2.54204 18.0979 2.46431 18.2139 2.4217L18.425 2.34422L18.7629 2.28483L19.1007 2.22543L19.3822 2.20864L19.6637 2.19186L19.9666 2.21846L20.2696 2.24506L20.5156 2.29955L20.7616 2.35404L20.9024 2.42273C20.9798 2.46043 21.0885 2.52061 21.1437 2.5565C21.1988 2.5924 21.2824 2.66213 21.3292 2.71171C21.3759 2.7613 21.4474 2.85426 21.488 2.91857ZM20.4849 4.18347L20.5148 3.93168L20.5142 3.93116L20.544 3.67937L20.5181 3.52804L20.4922 3.3767L20.4528 3.30853C20.4311 3.27108 20.3746 3.20213 20.3273 3.15513L20.2411 3.0699L20.084 3.00405L19.9269 2.9382L19.7107 2.91263L19.4945 2.88706L19.213 2.90359C19.0582 2.91263 18.8808 2.932 18.8189 2.94672C18.757 2.96144 18.6241 3.00947 18.5233 3.05363L18.3403 3.13395L18.1539 3.30388L17.9676 3.47381L17.8828 3.6285C17.8364 3.71372 17.7649 3.86815 17.7243 3.97197C17.6838 4.07578 17.6506 4.16591 17.6506 4.17211C17.6506 4.17831 18.2885 4.18347 19.0678 4.18347H20.4849ZM9.78248 2.83079C9.83766 2.57668 9.88946 2.35846 9.8979 2.34606L9.9131 2.32333L9.3008 2.33031L8.6885 2.33728L8.63755 2.673C8.6094 2.85765 8.54831 3.22385 8.50129 3.48649C8.45428 3.74913 8.38334 4.15019 8.34364 4.37745C8.30395 4.60471 8.23442 4.97065 8.18937 5.19093L8.15845 5.34202C8.11676 5.54571 8.06711 5.78833 8.03594 5.93986C7.99653 6.13148 7.92615 6.46849 7.87914 6.68878C7.83213 6.90907 7.76935 7.1996 7.73923 7.3344C7.7091 7.46921 7.67701 7.60582 7.66744 7.63785L7.65027 7.69595H8.86135L8.87853 7.65515C8.88782 7.63268 8.8957 7.5738 8.8957 7.52422C8.8957 7.47463 8.9337 7.21716 8.98044 6.95168C9.02689 6.68646 9.10374 6.25441 9.15132 5.99151C9.19889 5.72887 9.26871 5.34537 9.307 5.13928C9.34528 4.93346 9.41313 4.5905 9.45789 4.37745C9.50265 4.16439 9.57162 3.83306 9.61075 3.64144C9.65017 3.44982 9.7273 3.08491 9.78248 2.83079ZM15.8467 3.70571L15.7878 3.47329L15.729 3.24086L15.6338 3.0668L15.5387 2.89274L15.3551 2.71404L15.1716 2.53533L14.9542 2.43229L14.7369 2.32924L14.4976 2.27656L14.2583 2.22388L14.019 2.20787L13.7798 2.19186L13.5132 2.22001L13.2466 2.24815L13.0289 2.29903L12.8113 2.3499L12.6224 2.43022C12.5186 2.47438 12.3671 2.54927 12.2863 2.59679C12.2055 2.64431 12.1219 2.6988 12.1008 2.71817C12.0797 2.73754 12.0293 2.77318 11.9885 2.79745L11.9144 2.84187L11.9662 2.61513C11.9947 2.49039 12.0183 2.37366 12.0191 2.3561L12.0203 2.32382H10.9879L10.8976 2.84678C10.8477 3.13447 10.7692 3.57891 10.723 3.83458C10.6769 4.09025 10.6071 4.47375 10.5679 4.6868C10.5288 4.89986 10.4593 5.27768 10.4134 5.52611C10.3672 5.77455 10.2912 6.16967 10.2442 6.40416L10.2301 6.47425L10.0913 7.16599L9.98169 7.71241L9.93592 7.94074C9.8875 8.18221 9.81008 8.56571 9.76335 8.79296C9.71661 9.02022 9.64117 9.38048 9.595 9.59354C9.54883 9.80659 9.50435 10.007 9.4959 10.039L9.48042 10.0971H10.6909L10.7081 10.0563C10.7174 10.0339 10.7253 9.98091 10.7253 9.93882C10.7253 9.89672 10.7453 9.74358 10.7695 9.5987C10.794 9.45382 10.8511 9.12017 10.8967 8.85753C10.9377 8.6216 10.9968 8.27878 11.036 8.05181L11.0485 7.97948C11.0865 7.75919 11.1324 7.47744 11.1509 7.35323C11.1695 7.22901 11.1923 7.12726 11.2013 7.12726C11.2103 7.12726 11.2495 7.18226 11.2883 7.24941L11.3587 7.37156L11.5147 7.51592L11.6706 7.66028L11.8626 7.73079L12.0546 7.80129L12.2835 7.8284L12.5124 7.85552L12.8029 7.83925L13.0934 7.82298L13.4082 7.74835L13.7229 7.67371L13.8918 7.60295C13.9847 7.56396 14.1494 7.47925 14.2578 7.41443L14.4548 7.29667L14.6387 7.12829C14.7397 7.03558 14.8822 6.88709 14.9554 6.79825C15.0286 6.70941 15.0882 6.63013 15.0882 6.62212C15.0882 6.61412 15.1243 6.55911 15.1682 6.49971C15.2121 6.44031 15.3019 6.27555 15.3678 6.13351C15.4337 5.99148 15.5367 5.73581 15.5967 5.56537L15.7059 5.25547L15.7622 4.98715C15.7932 4.83943 15.8331 4.59538 15.8509 4.44482L15.8833 4.17082L15.8647 3.9384L15.8461 3.70597L15.8467 3.70571ZM14.6018 4.40299L14.5874 4.89366L14.5151 5.18367C14.4754 5.34327 14.3997 5.58732 14.3467 5.726L14.2507 5.97831L14.1333 6.18258C14.0689 6.29492 13.9692 6.44677 13.9121 6.51986C13.8549 6.59294 13.7637 6.68798 13.7097 6.73059C13.6556 6.7732 13.5647 6.84008 13.5081 6.87882L13.4051 6.94958L13.166 7.02422L12.927 7.09885L12.692 7.11176L12.4569 7.12468L12.3032 7.09988L12.1495 7.07509L11.9935 7.00975L11.8376 6.94442L11.7286 6.84886L11.6197 6.75331L11.5566 6.62419C11.522 6.55317 11.4775 6.43257 11.4578 6.35612L11.422 6.21719L11.4364 5.99458L11.4508 5.77197L11.5234 5.42333C11.5634 5.23171 11.6349 4.87119 11.6824 4.62276C11.73 4.37432 11.8024 4.00993 11.8429 3.8134L11.9167 3.45599L12.078 3.3328C12.1667 3.26514 12.3074 3.17424 12.3905 3.13111L12.5416 3.0526L12.7387 2.99656L12.9358 2.94052L13.1891 2.92683L13.4425 2.91315L13.6488 2.95343L13.8552 2.99372L14.0007 3.05518L14.1463 3.11665L14.2685 3.22924L14.3906 3.34184L14.4565 3.46115C14.4928 3.52675 14.5435 3.6551 14.5697 3.74652L14.617 3.91257L14.6026 4.40324L14.6018 4.40299ZM7.85264 0.342234L7.90022 0.155004H6.50924L6.49038 0.277672C6.47997 0.345075 6.44647 0.533855 6.41578 0.697327C6.3851 0.860799 6.32935 1.15133 6.29191 1.34295C6.25447 1.53457 6.18578 1.90077 6.13961 2.15644C6.09344 2.4121 6.03432 2.75067 6.00871 2.90846L5.96169 3.19563L4.94091 3.21448L3.92013 3.23334L3.06516 3.21474C2.59475 3.20441 2.20738 3.19408 2.20428 3.1915C2.20118 3.18892 2.21723 3.08872 2.23975 2.96837C2.26255 2.84829 2.30563 2.63936 2.33547 2.50456C2.36531 2.36975 2.42189 2.1022 2.46131 1.91058C2.50072 1.71896 2.5452 1.4806 2.5604 1.38117C2.5756 1.28175 2.60713 1.11621 2.63078 1.01317C2.65443 0.910125 2.69919 0.693195 2.73044 0.531273C2.76169 0.369092 2.7949 0.218017 2.80419 0.195549L2.82137 0.154487H1.44165L1.39745 0.380455C1.37324 0.504673 1.34087 0.681832 1.32538 0.774285C1.31018 0.866739 1.25866 1.16295 1.21109 1.43282C1.16351 1.70269 1.09341 2.10375 1.05541 2.32378L0.900855 3.21474C0.854124 3.48461 0.776706 3.90298 0.72913 4.14444C0.681553 4.3859 0.612582 4.7286 0.575984 4.90627C0.539387 5.08395 0.469571 5.42071 0.420868 5.6552C0.372166 5.88969 0.301224 6.22076 0.262937 6.39121C0.224932 6.56165 0.182705 6.75921 0.169192 6.83023C0.155679 6.90125 0.112325 7.10604 0.07235 7.28552C0.0323745 7.46475 0 7.63055 0 7.65353V7.69537H0.684087H1.36817L1.41716 7.41775C1.44418 7.26512 1.49683 6.97149 1.53427 6.76567L1.53754 6.74768C1.57566 6.53811 1.64288 6.16862 1.6891 5.91345C1.73696 5.65081 1.80847 5.26137 1.84816 5.04831C1.88786 4.83526 1.95092 4.5047 1.98836 4.31385C2.0258 4.123 2.06352 3.96031 2.07225 3.9523L2.08801 3.93784H5.7666L5.78715 3.95669L5.8077 3.97554L5.77589 4.12455C5.75844 4.20668 5.70636 4.4595 5.66047 4.68676C5.61458 4.91402 5.53745 5.29752 5.48903 5.53898C5.4406 5.78045 5.37079 6.12314 5.33363 6.30082C5.29647 6.4785 5.2213 6.85037 5.16669 7.12722C5.11207 7.40406 5.06731 7.64527 5.06759 7.66308V7.69537H6.4414L6.4718 7.53396C6.48841 7.44512 6.51544 7.28552 6.53148 7.17887C6.54753 7.07247 6.58666 6.84573 6.61791 6.67528C6.64944 6.50484 6.71222 6.16782 6.75754 5.92636C6.80287 5.6849 6.87888 5.27221 6.92617 5.00957C6.97347 4.74693 7.04385 4.36318 7.08241 4.15735C7.12098 3.95127 7.18967 3.60263 7.235 3.3826C7.28032 3.16232 7.35605 2.7907 7.40306 2.55621C7.45007 2.32172 7.52045 1.9674 7.55959 1.76855C7.59872 1.56969 7.66994 1.20944 7.71808 0.967972C7.76622 0.726509 7.82674 0.444759 7.85293 0.341718L7.85264 0.342234ZM40.0974 3.12274L39.9589 3.08194V3.08297L39.8204 3.04217L39.4685 3.03985L39.1166 3.03752L38.955 3.10931C38.866 3.14883 38.7179 3.23302 38.6259 3.29655L38.4584 3.41198L38.3052 3.59844L38.1521 3.78489L38.0361 4.00983C37.9722 4.13353 37.9198 4.24949 37.9195 4.26756C37.9193 4.28564 37.8993 4.35278 37.8748 4.41657C37.8506 4.48062 37.7926 4.69548 37.7461 4.89433C37.7 5.09319 37.6451 5.35479 37.6242 5.47539C37.6034 5.596 37.5541 5.87516 37.5144 6.09519C37.475 6.31548 37.4106 6.68813 37.3717 6.9234L37.3008 7.35132V7.69634H36.6862H36.0717L36.1235 7.45746L36.2592 6.8312C36.3053 6.61815 36.3805 6.26383 36.4264 6.04354C36.4723 5.82351 36.5415 5.48624 36.5807 5.29462C36.6198 5.103 36.6896 4.7368 36.736 4.48113C36.7825 4.22547 36.8582 3.80116 36.9044 3.53852C36.9506 3.27589 37.0142 2.90272 37.046 2.70929C37.0778 2.51586 37.1037 2.35032 37.1037 2.34128V2.32475H38.1453L38.1442 2.38286C38.1436 2.41488 38.107 2.60934 38.0628 2.81543C38.0186 3.02151 37.9863 3.19376 37.9908 3.19815C37.9953 3.20254 38.0476 3.13876 38.1073 3.05612L38.2157 2.90581L38.4173 2.71213L38.6188 2.51844L38.774 2.4327L38.9291 2.34696L39.1354 2.28033L39.3418 2.21371L39.5951 2.21319L39.8485 2.21267L39.9893 2.25322C40.0667 2.27543 40.1632 2.30564 40.2041 2.32036L40.2781 2.34696L40.2122 2.6393C40.1759 2.79993 40.1458 2.96857 40.1452 3.01402L40.1441 3.0964L40.1207 3.10957L40.0974 3.12274ZM30.3661 2.53478C30.3892 2.41624 30.4025 2.31423 30.3957 2.30804C30.3889 2.30184 30.2789 2.28583 30.1513 2.2724C30.0238 2.25897 29.6767 2.23521 29.3803 2.21972L28.8414 2.19131L28.4614 2.21817L28.0813 2.24502L27.7998 2.29926L27.5183 2.35349L27.337 2.42012C27.2374 2.45679 27.0912 2.52264 27.0124 2.5668C26.9336 2.61096 26.8334 2.67036 26.7895 2.69877C26.7455 2.72717 26.6127 2.83796 26.4942 2.94514L26.2785 3.13986L26.158 3.30152C26.0919 3.39036 25.9773 3.57604 25.9035 3.71369L25.7695 3.96419L25.6668 4.23535C25.6102 4.38436 25.5314 4.62841 25.4914 4.77767L25.4188 5.04884L25.3923 5.29417L25.3658 5.53951V5.86232L25.3664 6.18513L25.3929 6.37288L25.4193 6.56063L25.5038 6.7538L25.5882 6.94697L25.6856 7.08668L25.783 7.22639L25.9379 7.36611L26.0927 7.50582L26.2565 7.58536L26.4204 7.6649L26.6358 7.71965C26.754 7.74987 26.9252 7.78447 27.0158 7.79661C27.1064 7.80875 27.3201 7.82011 27.4904 7.82192L27.7998 7.82502L28.1514 7.7868C28.3448 7.76588 28.6024 7.73101 28.7238 7.70932C28.8451 7.68763 29.0413 7.64502 29.1601 7.61428C29.2789 7.58355 29.3862 7.55024 29.3988 7.54042C29.4115 7.53061 29.445 7.41337 29.4734 7.27985C29.5019 7.1466 29.5376 6.96763 29.5531 6.88241C29.5686 6.79718 29.5765 6.72281 29.5709 6.71738C29.5652 6.7117 29.5444 6.71893 29.5247 6.7334C29.505 6.74786 29.3668 6.80106 29.2178 6.85193L28.9467 6.94439L28.5608 7.01308L28.1748 7.08177L27.8466 7.07144L27.5183 7.06111L27.3319 7.00172L27.1456 6.94232L27.0014 6.82662L26.8573 6.71093L26.7619 6.55133L26.6664 6.39173L26.6208 6.17816L26.5752 5.96459V5.68749L26.5758 5.41039L26.631 5.07466L26.6861 4.73894L26.7447 4.55816C26.7768 4.45874 26.8134 4.34252 26.8255 4.29991C26.8379 4.2573 26.8894 4.13515 26.9404 4.02875C26.9913 3.92235 27.0817 3.75759 27.1416 3.66281L27.2506 3.49056L27.3843 3.36324L27.518 3.23593L27.6596 3.15535L27.8012 3.07478L27.9834 3.02339C28.0836 2.99498 28.2604 2.95831 28.3767 2.94178L28.5878 2.91157L28.8975 2.92577L29.2071 2.93997L29.5731 3.00712L29.9391 3.07426L30.088 3.12514C30.1699 3.15303 30.2403 3.17601 30.2448 3.17601C30.2493 3.17601 30.2687 3.0802 30.2884 2.96296C30.3081 2.84571 30.3431 2.65306 30.3661 2.53452V2.53478ZM35.4413 2.61293L35.5494 2.70822L35.6288 2.85723L35.7085 3.00676L35.706 3.33009L35.7034 3.65341L35.6277 4.02787C35.5863 4.2337 35.5159 4.58828 35.4715 4.81554C35.427 5.04279 35.3583 5.40305 35.3189 5.61611C35.2795 5.82916 35.2139 6.2186 35.1733 6.48124L35.0996 6.959L35.0838 7.32701L35.068 7.69501H34.0346L34.0351 7.53361C34.0354 7.44503 34.0534 7.25625 34.0754 7.11447C34.0974 6.97269 34.1114 6.85312 34.1069 6.84899C34.1024 6.84486 34.0481 6.90271 33.9864 6.9776C33.9248 7.05249 33.8122 7.17051 33.7362 7.23946C33.6602 7.30867 33.5284 7.40784 33.4431 7.46001C33.3578 7.51217 33.2187 7.585 33.1334 7.62193L32.9786 7.68907L32.7393 7.74537L32.5 7.80167L32.12 7.81174L31.7399 7.82182L31.5741 7.7978C31.4829 7.78463 31.3216 7.75131 31.2155 7.72368L31.0226 7.67358L30.8543 7.57984L30.6859 7.48609L30.5911 7.3846C30.539 7.32856 30.4621 7.22526 30.4202 7.1545L30.3439 7.02589L30.3028 6.82885L30.2617 6.6318V6.15869L30.3048 5.93324L30.3478 5.70779L30.4416 5.50713C30.4934 5.3966 30.5781 5.24836 30.6305 5.17734C30.6828 5.10632 30.8016 4.97849 30.8948 4.89327L31.064 4.73832L31.2791 4.61565C31.3973 4.54825 31.5057 4.49298 31.5201 4.49298C31.5344 4.49298 31.5989 4.46974 31.6634 4.44107C31.7278 4.41241 31.9297 4.35172 32.1121 4.30575L32.4437 4.22234L33.4566 4.21898L34.4695 4.21562L34.518 3.99921L34.5664 3.7828L34.5678 3.58549L34.5692 3.38819L34.4777 3.2632L34.3862 3.13821L34.2229 3.06435L34.0596 2.99049L33.8147 2.95123L33.5698 2.91198L33.1898 2.92644L32.8097 2.9409L32.3874 3.00676C32.1552 3.04291 31.8461 3.10205 31.7005 3.13795C31.555 3.17384 31.432 3.19967 31.4269 3.19502C31.4218 3.19037 31.4539 3.05944 31.4981 2.90397C31.5423 2.74851 31.5935 2.5543 31.6118 2.4727L31.6453 2.3242L31.8756 2.32343L32.1059 2.32266L32.4437 2.28495C32.6295 2.26429 32.9927 2.23537 33.2508 2.22065L33.7201 2.19405L34.0844 2.21936L34.4487 2.24466L34.7133 2.29864L34.9779 2.35261L35.1556 2.43499L35.3332 2.51763L35.4413 2.61293ZM34.1886 5.5265C34.228 5.39143 34.2773 5.19 34.2978 5.07843L34.2981 5.07817L34.3355 4.87545L34.291 4.85866L34.2466 4.84188H32.839L32.6138 4.89094L32.3886 4.94001L32.2073 5.02007L32.026 5.10013L31.8554 5.25559L31.6848 5.41106L31.5955 5.57995C31.5465 5.67292 31.4849 5.81651 31.4587 5.89941L31.4108 6.04997L31.4227 6.29814L31.4345 6.54632L31.4947 6.65272C31.5277 6.71108 31.5862 6.79295 31.6245 6.83479L31.694 6.91071L31.8216 6.97088C31.8917 7.00394 32.0164 7.04681 32.0983 7.06592L32.2475 7.10078L32.4727 7.08994L32.6979 7.07909L32.9263 7.01298L33.1546 6.94687L33.2584 6.8823C33.3153 6.84692 33.3725 6.81774 33.3848 6.81774C33.3972 6.81774 33.4834 6.74879 33.5763 6.66434L33.7452 6.51094L33.8479 6.35263C33.9045 6.2656 33.9507 6.18736 33.9507 6.17858C33.9507 6.16979 33.9881 6.07476 34.0337 5.96733C34.0793 5.8599 34.1492 5.66156 34.1886 5.5265Z" fill="#171716"/>
</svg>
