<svg width="11" height="15" viewBox="0 0 11 15" fill="none" xmlns="http://www.w3.org/2000/svg">
<path fill-rule="evenodd" clip-rule="evenodd" d="M3.61874 2.77907C3.61874 1.79572 4.41446 1 5.3978 1C6.38114 1 7.17687 1.79572 7.17687 2.77907V3.41311H3.61874V2.77907ZM2.61874 4.26991V6.19767H3.61874V4.26991H7.17687V6.19767H8.17687V4.26991H9.1077C9.5618 4.26991 9.93022 4.63833 9.93022 5.09243V12.3409C9.93022 12.8207 9.53609 13.2148 9.05629 13.2148H1.73072C1.25092 13.2148 0.856792 12.8207 0.856792 12.3409V5.09243C0.856792 4.63833 1.22521 4.26991 1.67931 4.26991H2.61874ZM2.61874 3.41311V2.77907C2.61874 1.24344 3.86218 0 5.3978 0C6.93343 0 8.17687 1.24344 8.17687 2.77907V3.41311H9.1077H9.11627C10.0416 3.41311 10.7956 4.16709 10.7956 5.09243V12.3409C10.7956 13.3005 10.0159 14.0716 9.06486 14.0716H1.73072C0.771113 14.0716 0 13.2919 0 12.3409V5.09243C0 4.16709 0.753977 3.41311 1.67931 3.41311H2.61874Z" fill="#E7D158"/>
</svg>
