<svg width="21" height="14" viewBox="0 0 21 14" fill="none" xmlns="http://www.w3.org/2000/svg">
<path d="M20.5603 2.1966C20.4414 1.77269 20.2098 1.3889 19.8901 1.08604C19.5614 0.773862 19.1585 0.550554 18.7195 0.437193C17.0765 0.00433624 10.4939 0.00433634 10.4939 0.00433634C7.74966 -0.0268707 5.00612 0.110386 2.27873 0.415331C1.83971 0.537067 1.43759 0.765365 1.10814 1.07992C0.784434 1.39123 0.549966 1.77511 0.427483 2.19573C0.133253 3.78002 -0.00970314 5.38867 0.000539963 6.99999C-0.00995862 8.60987 0.132647 10.218 0.427483 11.8043C0.547341 12.2231 0.780935 12.6053 1.10552 12.9139C1.4301 13.2226 1.83429 13.4456 2.27873 13.5637C3.94363 13.9957 10.4939 13.9957 10.4939 13.9957C13.2416 14.0269 15.9886 13.8896 18.7195 13.5847C19.1585 13.4713 19.5614 13.248 19.8901 12.9358C20.2138 12.6271 20.4439 12.2432 20.5594 11.8252C20.8613 10.2416 21.0081 8.63225 20.9977 7.02011C21.0204 5.40114 20.8738 3.78423 20.5603 2.19573V2.1966ZM8.40116 9.99414V4.00673L13.8779 7.00087L8.40116 9.99414Z" fill="#E7D158"/>
</svg>
