<svg width="82" height="11" viewBox="0 0 82 11" fill="none" xmlns="http://www.w3.org/2000/svg">
<path fill-rule="evenodd" clip-rule="evenodd" d="M0.583662 9.92569H4.01494V0.179323H0.583662C0.180853 0.179323 0 0.276133 0 0.579635C0 0.93869 0.264292 0.966467 0.472273 1.07676C0.723001 1.20094 0.736565 1.32511 0.736565 1.68417V8.42085C0.736565 8.7799 0.723001 8.90408 0.472273 9.02866C0.264292 9.13896 0 9.16673 0 9.52538C0 9.82929 0.180853 9.92569 0.583662 9.92569ZM4.43172 9.92569C4.61216 9.92569 4.77904 9.94203 4.94592 9.94203C7.52924 9.94203 8.77959 9.12507 8.77959 7.31672C8.77959 5.83965 7.80709 4.95611 6.00103 4.83193C7.68214 4.76289 8.64107 3.93449 8.64107 2.60897C8.64107 0.869657 7.5017 0.165843 5.01497 0.165843C4.83412 0.165843 4.6397 0.165843 4.43172 0.179323V1.00772C5.19582 1.02161 5.45929 1.35289 5.45929 2.23644V3.17513C5.45929 4.07256 5.18185 4.38995 4.43172 4.40384V5.23224C5.19582 5.24572 5.45929 5.56352 5.45929 6.44706V7.86899C5.45929 8.75253 5.19582 9.08381 4.43172 9.0977V9.92569ZM14.169 4.72123V5.54963C14.8501 5.65992 15.1 6.01897 15.1 6.79223V7.63411C15.1 9.24924 15.7667 10.0245 17.2254 10.0245C18.6698 10.0245 19.3924 9.00089 19.3924 8.4764C19.3924 8.24152 19.17 8.03442 18.9476 8.03442C18.6422 8.03442 18.5592 8.42085 18.3923 8.42085C18.2949 8.42085 18.253 8.33833 18.253 8.1586V6.91641C18.253 5.79799 17.4474 5.19057 15.8222 5.03862C17.4334 4.81804 18.2259 4.04478 18.2259 2.66452C18.2259 0.93869 17.0729 0.165843 14.6832 0.165843C14.5167 0.165843 14.3503 0.165843 14.169 0.179323V1.00772C14.7942 1.04898 15.0445 1.42192 15.0445 2.23644V3.49252C15.0445 4.30703 14.7942 4.67997 14.169 4.72123ZM13.9051 9.92569C14.3079 9.92569 14.4888 9.82929 14.4888 9.52538C14.4888 9.16673 14.2249 9.13896 14.0169 9.02866C13.8081 8.91797 13.7526 8.82156 13.7526 8.53154V0.179323H10.3214C9.91855 0.179323 9.7377 0.276133 9.7377 0.579635C9.7377 0.93869 10.002 0.966467 10.21 1.07676C10.4603 1.20094 10.4743 1.32511 10.4743 1.68417V8.42085C10.4743 8.7799 10.4603 8.90408 10.21 9.02866C10.002 9.13896 9.7377 9.16673 9.7377 9.52538C9.7377 9.82929 9.91855 9.92569 10.3214 9.92569H13.9051ZM22.9206 3.42348L22.5182 1.76709L20.8507 7.93802C20.7118 8.44862 20.5453 8.7799 20.198 8.97311C19.9201 9.12507 19.5313 9.08381 19.5313 9.51149C19.5313 9.82929 19.6978 9.92569 20.184 9.92569H21.8927C22.3514 9.92569 22.5733 9.80151 22.5733 9.49801C22.5733 9.13896 22.3649 9.13896 22.0456 8.97311C21.7817 8.84893 21.6428 8.62835 21.6428 8.33833C21.6428 8.24152 21.6563 8.10345 21.7122 7.92413L22.9206 3.42348ZM24.3235 7.49604L24.5598 8.43473C24.5874 8.55891 24.6013 8.64183 24.6013 8.6835C24.6013 9.12507 24.0181 9.01478 24.0181 9.47023C24.0181 9.82929 24.268 9.92569 24.7958 9.92569H27.9636C28.5324 9.92569 28.7548 9.85666 28.7548 9.49801C28.7548 9.00089 28.0047 9.11118 28.0047 8.6835C28.0047 8.65572 27.9771 8.5728 27.9352 8.40736L25.8932 0.179323H22.9622L22.7262 0.993835L24.0876 6.50221H22.5594L22.2815 7.49604H24.3235ZM32.8943 9.20799C31.9917 8.987 31.2691 8.29667 30.9217 7.38575C30.6862 6.76445 30.7413 6.26733 30.2694 6.26733C29.9077 6.26733 29.8243 6.48832 29.8243 6.98544V9.52538C29.8243 9.9118 30.0052 10.1075 30.283 10.1075C30.6862 10.1075 30.6028 9.70511 30.9637 9.70511C31.283 9.70511 31.8942 10.094 32.8943 10.1075V9.20799ZM33.3111 10.1214C35.6313 10.1214 37.0477 8.73864 37.0477 6.8196C37.0477 5.10765 36.1315 4.16896 34.2696 3.42348C32.9921 2.91288 32.2555 2.66452 32.2555 1.89127C32.2555 1.39415 32.6029 0.966467 33.1721 0.855769V0H33.0612C31.0886 0 29.7828 1.39415 29.7828 3.28542C29.7828 5.08028 30.9497 5.82576 32.6999 6.59861C33.8668 7.12351 34.5335 7.39964 34.5335 8.20026C34.5335 8.82156 34.145 9.13896 33.3111 9.1941V10.1214ZM33.5889 0.8284C34.464 0.993835 35.1451 1.57388 35.492 2.44354C35.7148 2.9958 35.6728 3.45126 36.1315 3.45126C36.4785 3.45126 36.5479 3.24416 36.5479 2.80259V0.52449C36.5479 0.179323 36.4785 0 36.1451 0C35.7559 0 35.7838 0.4142 35.4505 0.4142C35.2281 0.4142 34.6309 0.0138884 33.5889 0V0.8284ZM41.9793 0.179323H38.548C38.1452 0.179323 37.9647 0.276133 37.9647 0.579635C37.9647 0.93869 38.2286 0.966467 38.4374 1.07676C38.6873 1.20094 38.7009 1.32511 38.7009 1.68417V8.42085C38.7009 8.7799 38.6873 8.90408 38.4374 9.02866C38.2286 9.13896 37.9647 9.16673 37.9647 9.52538C37.9647 9.82929 38.1452 9.92569 38.548 9.92569H42.1597C42.6464 9.92569 42.8683 9.85666 42.8683 9.53927C42.8683 9.26313 42.7014 9.16673 42.4236 9.06992C42.1322 8.95963 41.9793 8.91797 41.9793 8.58669V0.179323ZM43.2711 2.23644V4.14159C43.2711 4.95611 43.0212 5.31475 42.3965 5.35642V6.18482H42.6879C45.1742 6.18482 46.4521 5.16321 46.4521 3.18901C46.4521 1.21482 45.1602 0.179323 42.6879 0.179323H42.3965V1.00772C43.0212 1.04898 43.2711 1.42192 43.2711 2.23644ZM51.7585 4.72123V5.54963C52.4391 5.65992 52.6895 6.01897 52.6895 6.79223V7.63411C52.6895 9.24924 53.3561 10.0245 54.8145 10.0245C56.2597 10.0245 56.9818 9.00089 56.9818 8.4764C56.9818 8.24152 56.7595 8.03442 56.5371 8.03442C56.2317 8.03442 56.1483 8.42085 55.9814 8.42085C55.8844 8.42085 55.8425 8.33833 55.8425 8.1586V6.91641C55.8425 5.79799 55.0368 5.19057 53.4116 5.03862C55.0233 4.81804 55.8149 4.04478 55.8149 2.66452C55.8149 0.93869 54.662 0.165843 52.2727 0.165843C52.1058 0.165843 51.9393 0.165843 51.7585 0.179323V1.00772C52.3841 1.04898 52.634 1.42192 52.634 2.23644V3.49252C52.634 4.30703 52.3841 4.67997 51.7585 4.72123ZM51.4946 9.92569C51.8974 9.92569 52.0783 9.82929 52.0783 9.52538C52.0783 9.16673 51.814 9.13896 51.606 9.02866C51.3976 8.91797 51.3417 8.82156 51.3417 8.53154V0.179323H47.9108C47.5084 0.179323 47.3272 0.276133 47.3272 0.579635C47.3272 0.93869 47.591 0.966467 47.7994 1.07676C48.0498 1.20094 48.0637 1.32511 48.0637 1.68417V8.42085C48.0637 8.7799 48.0498 8.90408 47.7994 9.02866C47.591 9.13896 47.3272 9.16673 47.3272 9.52538C47.3272 9.82929 47.5084 9.92569 47.9108 9.92569H51.4946ZM61.8719 0.179323V1.07676C62.6631 1.14579 63.3022 1.51873 63.6771 2.08448C64.0244 2.60897 63.9829 3.18901 64.4691 3.18901C64.7051 3.18901 64.858 3.02317 64.858 2.77481V0.179323H61.8719ZM57.9819 9.92569H61.4131V0.179323H57.9819C57.5795 0.179323 57.3982 0.276133 57.3982 0.579635C57.3982 0.93869 57.6629 0.966467 57.8705 1.07676C58.1208 1.20094 58.1348 1.32511 58.1348 1.68417V8.42085C58.1348 8.7799 58.1208 8.90408 57.8705 9.02866C57.6629 9.13896 57.3982 9.16673 57.3982 9.52538C57.3982 9.82929 57.5795 9.92569 57.9819 9.92569ZM61.8719 9.92569H64.955V7.82732C64.955 7.16476 64.8995 6.8196 64.4827 6.8196C63.9829 6.8196 64.0659 7.48215 63.7605 7.97928C63.3717 8.61446 62.7465 8.95963 61.8719 9.02866V9.92569ZM61.8719 5.35642C62.2463 5.46671 62.4547 5.61866 62.5936 5.94994C62.8715 6.57124 62.83 6.84737 63.2188 6.84737C63.5246 6.84737 63.608 6.6125 63.608 6.15704V3.7135C63.608 3.23027 63.5382 2.96803 63.2188 2.96803C62.83 2.96803 62.8715 3.25805 62.5936 3.87935C62.4407 4.23799 62.2048 4.36258 61.8719 4.45898V5.35642ZM69.4282 9.20799C68.5252 8.987 67.8034 8.29667 67.4557 7.38575C67.2193 6.76445 67.2748 6.26733 66.8026 6.26733C66.4417 6.26733 66.3582 6.48832 66.3582 6.98544V9.52538C66.3582 9.9118 66.5387 10.1075 66.8169 10.1075C67.2193 10.1075 67.1359 9.70511 67.4972 9.70511C67.817 9.70511 68.4278 10.094 69.4282 10.1075V9.20799ZM69.845 10.1214C72.1649 10.1214 73.5821 8.73864 73.5821 6.8196C73.5821 5.10765 72.6647 4.16896 70.8031 3.42348C69.5252 2.91288 68.7891 2.66452 68.7891 1.89127C68.7891 1.39415 69.1364 0.966467 69.7065 0.855769V0H69.5947C67.6222 0 66.3163 1.39415 66.3163 3.28542C66.3163 5.08028 67.4836 5.82576 69.2338 6.59861C70.4003 7.12351 71.0674 7.39964 71.0674 8.20026C71.0674 8.82156 70.6782 9.13896 69.845 9.1941V10.1214ZM70.1229 0.8284C70.9979 0.993835 71.6786 1.57388 72.0259 2.44354C72.2479 2.9958 72.2064 3.45126 72.6647 3.45126C73.0124 3.45126 73.0815 3.24416 73.0815 2.80259V0.52449C73.0815 0.179323 73.0124 0 72.6791 0C72.2898 0 72.3173 0.4142 71.984 0.4142C71.7616 0.4142 71.1644 0.0138884 70.1229 0V0.8284ZM77.8461 9.20799C76.9431 8.987 76.2213 8.29667 75.8736 7.38575C75.6376 6.76445 75.6931 6.26733 75.2209 6.26733C74.8596 6.26733 74.7761 6.48832 74.7761 6.98544V9.52538C74.7761 9.9118 74.957 10.1075 75.2352 10.1075C75.6376 10.1075 75.5542 9.70511 75.9155 9.70511C76.2349 9.70511 76.8461 10.094 77.8461 10.1075V9.20799ZM78.2629 10.1214C80.5827 10.1214 82 8.73864 82 6.8196C82 5.10765 81.083 4.16896 79.2214 3.42348C77.9435 2.91288 77.2078 2.66452 77.2078 1.89127C77.2078 1.39415 77.5543 0.966467 78.1244 0.855769V0H78.013C76.0405 0 74.735 1.39415 74.735 3.28542C74.735 5.08028 75.9015 5.82576 77.6517 6.59861C78.8186 7.12351 79.4853 7.39964 79.4853 8.20026C79.4853 8.82156 79.0965 9.13896 78.2629 9.1941V10.1214ZM78.5407 0.8284C79.4158 0.993835 80.0965 1.57388 80.4438 2.44354C80.6662 2.9958 80.6243 3.45126 81.083 3.45126C81.4303 3.45126 81.4993 3.24416 81.4993 2.80259V0.52449C81.4993 0.179323 81.4303 0 81.0969 0C80.7077 0 80.7356 0.4142 80.4023 0.4142C80.1803 0.4142 79.5827 0.0138884 78.5407 0V0.8284Z" fill="#171716"/>
</svg>
