<svg width="26" height="23" viewBox="0 0 26 23" fill="none" xmlns="http://www.w3.org/2000/svg">
<path fill-rule="evenodd" clip-rule="evenodd" d="M10.3866 7.90319e-07H15.2317C20.8615 -0.00219088 26 4.55418 26 11.146C26 17.174 20.8615 22.1289 15.2317 22.1H10.3866C4.68938 22.1289 0 17.1753 0 11.146C0 4.5555 4.68938 -0.00219088 10.3866 7.90319e-07ZM0.983731 11.0303C0.984957 16.6171 5.20351 21.1441 10.4095 21.1458C15.6167 21.1441 19.8361 16.6171 19.8369 11.0303C19.8361 5.44256 15.6167 0.915134 10.4095 0.91338C5.20351 0.915134 0.984957 5.44256 0.983731 11.0303ZM12.5478 5.04575V17.0157C14.7899 16.0909 16.3818 13.763 16.3859 11.0303C16.3818 8.29849 14.7899 5.96878 12.5478 5.04575ZM4.43479 11.0305C4.43969 13.7614 6.02911 16.0885 8.2704 17.0133V5.04639C6.02911 5.97161 4.43969 8.3 4.43479 11.0305Z" fill="#171716"/>
</svg>
