<svg width="37" height="22" viewBox="0 0 37 22" fill="none" xmlns="http://www.w3.org/2000/svg">
<path fill-rule="evenodd" clip-rule="evenodd" d="M0.409605 0H0V11.5931H0.409605V0ZM1.22881 0H0.81921V11.5931H1.22881V0ZM3.68813 0H3.27852V11.5931H3.68813V0ZM11.6612 0H11.2516V11.5931H11.6612V0ZM14.3266 0H13.917V11.5931H14.3266V0ZM16.9112 0H16.5016V11.5931H16.9112V0ZM17.5774 0H17.1678V11.5931H17.5774V0ZM18.2443 0H17.8347V11.5931H18.2443V0ZM18.994 0H18.5844V11.5931H18.994V0ZM19.7436 0H19.334V11.5931H19.7436V0ZM21.8273 0H21.4177V11.5931H21.8273V0ZM26.994 0H26.5843V11.5931H26.994V0ZM32.3832 0H31.9736V11.5931H32.3832V0ZM33.8571 0H33.4475V11.5931H33.8571V0ZM34.9224 0H34.5128V11.5931H34.9224V0ZM35.5783 0H35.1687V11.5931H35.5783V0ZM6.39284 0H5.98323V11.5931H6.39284V0ZM2.62198 0H1.88452V11.5931H2.62198V0ZM7.48942 0H6.75196V11.5931H7.48942V0ZM10.9072 0H10.1697V11.5931H10.9072V0ZM12.6568 0H11.9193V11.5931H12.6568V0ZM15.4067 0H14.6692V11.5931H15.4067V0ZM23.6561 0H22.5091V11.5931H23.6561V0ZM24.9093 0H24.0075V11.5931H24.9093V0ZM26.326 0H25.5886V11.5931H26.326V0ZM28.9089 0H27.6792V11.5931H28.9089V0ZM31.3169 0H30.0872V11.5931H31.3169V0ZM5.57264 0H4.09773V11.5931H5.57264V0ZM9.06782 0H7.92076V11.5931H9.06782V0ZM0.530463 15.251V21.8865V21.8867H2.90466C3.24218 21.8934 3.57929 21.856 3.90827 21.7754C4.15366 21.7152 4.38532 21.6037 4.59005 21.4473C4.78665 21.2829 4.94371 21.071 5.04832 20.829C5.172 20.5592 5.2351 20.2625 5.23272 19.9622C5.24029 19.6003 5.13343 19.2463 4.92926 18.9572C4.70869 18.661 4.40327 18.4496 4.05957 18.3556C4.32741 18.224 4.55429 18.0137 4.71359 17.7493C4.85508 17.5094 4.9301 17.2318 4.9301 16.9484C4.92842 16.6375 4.84358 16.3336 4.68569 16.0723C4.52625 15.7963 4.29039 15.5795 4.01077 15.4522C3.64604 15.3033 3.25663 15.235 2.86637 15.251H0.530463ZM2.70105 18.0394H1.35486V16.0344H2.59938C2.91756 16.0197 3.23616 16.051 3.54648 16.127C3.72148 16.1837 3.87111 16.3063 3.96744 16.4719C4.06827 16.6463 4.11987 16.8481 4.11608 17.053C4.12337 17.2595 4.06756 17.4628 3.95692 17.6324C3.83801 17.7955 3.67156 17.9116 3.4838 17.9625C3.22718 18.0246 2.96397 18.0505 2.70105 18.0394ZM2.90452 21.1042H1.35486V18.8154H2.795C3.10196 18.8036 3.40892 18.8411 3.7055 18.9266C3.90616 18.9925 4.08033 19.1279 4.20036 19.3113C4.32208 19.5024 4.38448 19.7293 4.37859 19.9602C4.38167 20.1538 4.33933 20.345 4.25505 20.5164C4.18283 20.6674 4.07458 20.7953 3.94108 20.8873C3.79496 20.9807 3.63356 21.0435 3.46543 21.0726C3.27949 21.0989 3.092 21.1094 2.90452 21.1042ZM7.26854 16.0677C6.68309 16.7801 6.38426 17.7095 6.43629 18.655H6.43615C6.43447 19.2287 6.55646 19.795 6.79275 20.3106C7.02202 20.823 7.38689 21.2529 7.84235 21.5472C8.31562 21.852 8.85998 22.0083 9.4129 21.9986C9.94128 22.0019 10.4617 21.8608 10.9244 21.5889C11.3925 21.3148 11.7704 20.8941 12.0071 20.3838C12.2682 19.8231 12.3992 19.2039 12.389 18.578C12.399 17.9626 12.2748 17.3529 12.0263 16.7973C11.7958 16.2871 11.4288 15.861 10.9714 15.5728C10.5009 15.2773 9.96344 15.1253 9.41739 15.1333C8.6087 15.103 7.82651 15.443 7.26854 16.0677ZM7.89466 20.559C7.46893 20.0373 7.25059 19.3593 7.28593 18.6689L7.28579 18.6687V18.6678C7.21497 17.893 7.44368 17.1206 7.91892 16.5293C8.32039 16.1103 8.86237 15.8797 9.42426 15.8888C9.8169 15.8832 10.2025 15.9988 10.5349 16.2215C10.8675 16.4469 11.1291 16.7734 11.2862 17.1587C11.4644 17.6057 11.5507 18.088 11.5393 18.5734C11.5829 19.2903 11.368 19.9979 10.9384 20.5515C10.5499 21.0103 9.99274 21.2653 9.41304 21.2496C8.83699 21.2645 8.28323 21.0127 7.89466 20.559ZM13.7396 15.251V21.8864H17.6287V21.1031H14.5632V15.251H13.7396ZM18.9488 15.251V21.8862H23.5944V21.103H19.7724V18.8448H23.2162V18.0662H19.7724V16.0342H23.4501V15.251H18.9488ZM26.6382 16.0344V21.8865H27.4616V16.0344H29.521V15.2511H24.5867V16.0344H26.6382ZM31.1142 16.0677C30.5282 16.78 30.2287 17.7092 30.2803 18.655H30.28C30.2784 19.2287 30.4003 19.795 30.6366 20.3106C30.8653 20.8227 31.2292 21.2524 31.6837 21.5472C32.1571 21.8524 32.7018 22.0092 33.2551 21.9995C33.7835 22.0028 34.3039 21.8617 34.7666 21.5898C35.2361 21.3161 35.6154 20.895 35.8528 20.3838C36.1139 19.8231 36.2449 19.2039 36.2347 18.578C36.2448 17.9626 36.1207 17.3529 35.872 16.7973C35.6415 16.2871 35.2745 15.861 34.8171 15.5728C34.3466 15.2773 33.8091 15.1253 33.2631 15.1333C32.4544 15.103 31.6722 15.443 31.1142 16.0677ZM31.7387 20.559C31.313 20.0373 31.0946 19.3593 31.13 18.6689V18.6687L31.1291 18.6678C31.058 17.8934 31.286 17.1215 31.7604 16.5302C32.1619 16.1112 32.7039 15.8806 33.2658 15.8897C33.6584 15.8841 34.044 15.9997 34.3764 16.2224C34.709 16.4478 34.9706 16.7743 35.1277 17.1596C35.3085 17.606 35.3975 18.0883 35.3885 18.5743C35.4321 19.2912 35.2172 19.9988 34.7877 20.5524C34.3977 21.0124 33.8383 21.2671 33.2571 21.2496C32.681 21.2645 32.1273 21.0127 31.7387 20.559Z" fill="#171716"/>
</svg>
