<svg width="28" height="22" viewBox="0 0 28 22" fill="none" xmlns="http://www.w3.org/2000/svg">
<path fill-rule="evenodd" clip-rule="evenodd" d="M13.5881 1.87394C15.0105 0.705917 16.8083 0 18.7693 0C23.4174 0 27.1762 3.94352 27.1762 8.76022C27.1762 13.6024 23.4174 17.5204 18.772 17.5204C16.811 17.5204 15.0133 16.8145 13.5881 15.6465C12.1629 16.8145 10.3651 17.5204 8.40417 17.5204C3.75876 17.5204 0 13.6024 0 8.76022C0 3.918 3.75876 0 8.40417 0C10.3651 0 12.1629 0.705917 13.5881 1.87394ZM13.5881 1.87396C11.6516 3.47858 10.3896 5.96206 10.3896 8.76022C10.3896 11.5584 11.6489 14.0645 13.5881 15.6465C15.549 14.039 16.7866 11.5584 16.7866 8.76022C16.7866 5.96206 15.5246 3.47858 13.5881 1.87396ZM4.92555 21.9516V20.4915C4.92555 19.933 4.59917 19.5673 4.0389 19.5673C3.75876 19.5673 3.45414 19.6637 3.24472 19.9812C3.08153 19.7147 2.84763 19.5673 2.49677 19.5673C2.26287 19.5673 2.02897 19.641 1.84402 19.9075V19.6155H1.35446V21.9516H1.84402V20.6616C1.84402 20.2477 2.05345 20.0521 2.37982 20.0521C2.7062 20.0521 2.86938 20.2704 2.86938 20.6616V21.9516H3.35895V20.6616C3.35895 20.2477 3.59285 20.0521 3.89475 20.0521C4.22112 20.0521 4.38431 20.2704 4.38431 20.6616V21.9516H4.92555ZM12.1847 19.6155H11.3932V18.9096H10.9037V19.6155H10.4603V20.0776H10.9037V21.1492C10.9037 21.6851 11.1131 21.9998 11.6734 21.9998C11.8828 21.9998 12.1167 21.926 12.2799 21.8297L12.1384 21.3902C11.997 21.4866 11.8338 21.5121 11.7169 21.5121C11.483 21.5121 11.3905 21.3647 11.3905 21.1237V20.0776H12.1847V19.6155ZM16.3432 19.5645C16.0631 19.5645 15.8754 19.7119 15.7585 19.9047V19.6127H15.2689V21.9487H15.7585V20.6333C15.7585 20.2449 15.9217 20.0237 16.2263 20.0237C16.3188 20.0237 16.4357 20.0493 16.5309 20.0719L16.6723 19.5843C16.5744 19.5645 16.4357 19.5645 16.3432 19.5645ZM10.0632 19.8083C9.82934 19.6382 9.50296 19.5645 9.15211 19.5645C8.59183 19.5645 8.21922 19.8565 8.21922 20.3186C8.21922 20.707 8.49936 20.9281 8.98892 20.999L9.22283 21.0245C9.47849 21.0727 9.61992 21.1464 9.61992 21.2683C9.61992 21.4384 9.43225 21.5603 9.10587 21.5603C8.7795 21.5603 8.52112 21.4384 8.35793 21.3165L8.12403 21.7049C8.37969 21.9005 8.73054 21.9969 9.0814 21.9969C9.73415 21.9969 10.1095 21.6794 10.1095 21.2428C10.1095 20.8289 9.80486 20.6106 9.33978 20.5369L9.10587 20.5114C8.89645 20.4859 8.73326 20.4377 8.73326 20.2931C8.73326 20.123 8.89645 20.0266 9.15483 20.0266C9.43497 20.0266 9.71511 20.1485 9.85654 20.2222L10.0632 19.8083ZM23.0883 19.5645C22.8082 19.5645 22.6205 19.7119 22.5036 19.9047V19.6127H22.014V21.9487H22.5036V20.6333C22.5036 20.2449 22.6668 20.0237 22.9714 20.0237C23.0639 20.0237 23.1808 20.0493 23.276 20.0719L23.4174 19.59C23.3222 19.5645 23.1835 19.5645 23.0883 19.5645ZM16.8328 20.7835C16.8328 21.4895 17.3006 21.9998 18.0241 21.9998C18.3505 21.9998 18.5844 21.926 18.8183 21.7333L18.5844 21.3193C18.3967 21.4668 18.2117 21.5376 17.9996 21.5376C17.6025 21.5376 17.3224 21.2456 17.3224 20.7835C17.3224 20.3214 17.6025 20.0521 17.9996 20.0294C18.209 20.0294 18.3967 20.1031 18.5844 20.2477L18.8183 19.8338C18.5844 19.6382 18.3505 19.5673 18.0241 19.5673C17.3006 19.5645 16.8328 20.0776 16.8328 20.7835ZM21.3613 20.7835V19.6155H20.8717V19.9075C20.7085 19.6892 20.4746 19.5673 20.17 19.5673C19.539 19.5673 19.0494 20.0776 19.0494 20.7835C19.0494 21.4895 19.539 21.9998 20.17 21.9998C20.4964 21.9998 20.7303 21.8778 20.8717 21.6596V21.9516H21.3613V20.7835ZM19.5635 20.7835C19.5635 20.3696 19.8191 20.0294 20.2407 20.0294C20.6378 20.0294 20.9179 20.3469 20.9179 20.7835C20.9179 21.1974 20.6378 21.5376 20.2407 21.5376C19.8219 21.5121 19.5635 21.1946 19.5635 20.7835ZM13.705 19.5645C13.0523 19.5645 12.5845 20.0521 12.5845 20.7807C12.5845 21.5093 13.0523 21.9969 13.7295 21.9969C14.0559 21.9969 14.3823 21.9005 14.6407 21.6794L14.4068 21.3137C14.2191 21.4611 13.9852 21.5575 13.754 21.5575C13.4494 21.5575 13.1475 21.4101 13.0768 20.999H14.7331V20.8034C14.7549 20.0521 14.3333 19.5645 13.705 19.5645ZM13.705 20.0039C14.0097 20.0039 14.2191 20.1995 14.2653 20.5624H13.0985C13.1448 20.2477 13.3542 20.0039 13.705 20.0039ZM25.868 20.7835V18.6913H25.3784V19.9075C25.2152 19.6892 24.9813 19.5673 24.6767 19.5673C24.0457 19.5673 23.5561 20.0776 23.5561 20.7835C23.5561 21.4895 24.0457 21.9998 24.6767 21.9998C25.0031 21.9998 25.237 21.8778 25.3784 21.6596V21.9516H25.868V20.7835ZM24.0702 20.7835C24.0702 20.3696 24.3258 20.0294 24.7474 20.0294C25.1445 20.0294 25.4246 20.3469 25.4246 20.7835C25.4246 21.1974 25.1445 21.5376 24.7474 21.5376C24.3258 21.5121 24.0702 21.1946 24.0702 20.7835ZM7.6807 20.7835V19.6155H7.19114V19.9075C7.02795 19.6892 6.79405 19.5673 6.48943 19.5673C5.85844 19.5673 5.36888 20.0776 5.36888 20.7835C5.36888 21.4895 5.85844 21.9998 6.48943 21.9998C6.81581 21.9998 7.04971 21.8778 7.19114 21.6596V21.9516H7.6807V20.7835ZM5.86116 20.7835C5.86116 20.3696 6.11682 20.0294 6.53839 20.0294C6.93548 20.0294 7.21562 20.3469 7.21562 20.7835C7.21562 21.1974 6.93548 21.5376 6.53839 21.5376C6.11682 21.5121 5.86116 21.1946 5.86116 20.7835Z" fill="#171716"/>
</svg>
