<svg width="44" height="12" viewBox="0 0 44 12" fill="none" xmlns="http://www.w3.org/2000/svg">
<path fill-rule="evenodd" clip-rule="evenodd" d="M31.8192 0.494615L31.8191 0.494593L31.8192 0.494244V0.494615ZM31.8191 0.494593L31.3275 3.00254L31.0005 2.87908C30.3468 2.644 29.4835 2.4093 28.3083 2.43414C26.8814 2.43414 26.2412 2.94062 26.2264 3.43487C26.2264 3.9788 27.001 4.33697 28.265 4.86866C30.3473 5.69697 31.3132 6.70993 31.299 8.03249C31.2695 10.4425 28.8004 11.9998 25.0079 11.9998C23.3865 11.9876 21.8245 11.7028 20.9768 11.3817L21.4827 8.77404L21.9588 8.9598C23.134 9.39287 23.9072 9.57788 25.3501 9.57788C26.3906 9.57788 27.5065 9.21934 27.5208 8.44108C27.5208 7.93423 27.0452 7.56309 25.6469 6.99469C24.2784 6.43815 22.4496 5.51158 22.479 3.84309C22.4942 1.58173 25.0079 0 28.5773 0C29.9756 0 31.1061 0.259527 31.8191 0.494593ZM18.7165 11.8267H15.102L17.3628 0.210289H20.9768L18.7165 11.8267ZM38.0661 4.46124C38.0661 4.46124 36.9207 7.04406 36.6231 7.71146H39.6272C39.4786 7.13045 38.7942 4.35 38.7942 4.35L38.5417 3.34891C38.4356 3.60612 38.2822 3.95938 38.1784 4.19838C38.1076 4.36143 38.0599 4.47131 38.0661 4.46124ZM38.2891 0.210289H41.0849L44.001 11.8271H40.6543C40.6543 11.8271 40.3268 10.4923 40.2229 10.0844H35.5822C35.4479 10.3933 34.8237 11.8271 34.8237 11.8271H31.0313L36.4001 1.17431C36.7722 0.420148 37.4271 0.210289 38.2891 0.210289ZM7.79909 5.01703L7.79895 5.01646L7.79909 5.01666V5.01703ZM7.79895 5.01646C6.50951 3.14933 4.41701 1.64998 1.75703 0.716398C1.19753 0.520258 0.609471 0.351184 0 0.210289H5.25591C6.04429 0.234761 6.6841 0.44499 6.89202 1.18691L7.79895 5.01646ZM8.54286 8.13155L12.0828 0.210289H12.0832H15.9051L10.2236 11.8141H6.40123L3.1589 1.65557C5.4491 2.65704 7.50149 4.6711 8.15602 6.52498L8.54286 8.13155Z" fill="#171716"/>
</svg>
