<svg width="83" height="17" viewBox="0 0 83 17" fill="none" xmlns="http://www.w3.org/2000/svg">
<path fill-rule="evenodd" clip-rule="evenodd" d="M19.5897 0.726974L23.1498 5.27522C23.2243 5.38706 23.2803 5.51754 23.2803 5.66667C23.2803 5.81579 23.2243 5.94627 23.1498 6.05811L19.5711 10.6064C19.2169 11.0537 18.695 11.3333 18.0799 11.3333H10.2142L10.4286 11.0649L10.2329 11.3147L18.1359 1.52851C18.2663 1.36075 18.3409 1.17434 18.3409 0.950658C18.3409 0.428728 17.9122 0 17.3903 0H18.0986C18.695 0 19.2356 0.279605 19.5897 0.726974ZM17.161 0H17.353L17.3613 0.0247209C17.7766 0.12306 18.0799 0.501913 18.0799 0.950658C18.0799 1.17434 18.0054 1.37939 17.8749 1.52851L14.6503 5.66667L10.2142 0H17.1293H17.148H17.161ZM5.18164 16.0495C5.18164 16.4904 5.48756 16.8648 5.89716 16.9704L5.9086 16.9998H6.10732C6.1156 17.0001 6.12391 17.0002 6.13224 17.0002H13.0473L8.62988 11.3335L5.38667 15.4717C5.2562 15.6208 5.18164 15.8258 5.18164 16.0495ZM5.18168 5.6665C4.56658 5.6665 4.04469 5.94611 3.69055 6.39348L0.130474 10.9417C0.0559174 11.0536 0 11.184 0 11.3332C0 11.4823 0.0559174 11.6128 0.130474 11.7246L3.67191 16.2729C4.02605 16.7202 4.56658 16.9998 5.16304 16.9998H5.88996C5.36807 16.9998 4.93937 16.5711 4.93937 16.0492C4.93937 15.8255 5.01392 15.6391 5.1444 15.4713L11.8806 7.13164L13.0474 5.6665H5.18168ZM52.786 5.12589C52.3387 5.12589 51.9845 5.18181 51.6118 5.29365C51.0153 5.48005 50.568 5.79694 50.2325 6.24431C49.6546 6.98992 49.6733 7.88466 49.6733 7.88466V14.1105H51.3322C51.444 14.1105 51.5186 14.0173 51.5186 13.9241V8.01514C51.5186 7.9033 51.5372 7.49321 51.7609 7.28817C51.9473 7.1204 52.1896 7.04584 52.4319 7.00856C52.6928 6.97128 52.9538 6.98992 53.0842 7.00856H53.1215C53.252 7.00856 53.3452 6.934 53.4011 6.8408L54.2585 5.36821C53.8112 5.20045 53.3266 5.10725 52.786 5.12589ZM46.7283 5.29366C47.0825 5.18182 47.4553 5.1259 47.9026 5.1259C48.4431 5.10726 48.9091 5.20046 49.3937 5.34958L48.5177 6.84081C48.4618 6.93401 48.3499 7.00857 48.2381 7.00857H48.2008C48.0704 6.98993 47.8094 6.97129 47.5485 7.00857C47.3061 7.04585 47.0638 7.12042 46.8774 7.28818C46.6538 7.49322 46.6351 7.90331 46.6351 8.01515V13.9241C46.6351 14.0173 46.5606 14.1105 46.4487 14.1105H44.7899V7.88467C44.7899 7.88467 44.7712 6.98993 45.349 6.24432C45.6845 5.79695 46.1319 5.48007 46.7283 5.29366ZM33.4012 11.8181C33.3453 11.7436 33.2335 11.6877 33.1216 11.6877C33.0657 11.6877 32.9912 11.7063 32.9539 11.7436C32.3947 12.0791 31.7237 12.2842 31.0154 12.2842C28.9278 12.2842 27.2317 10.5879 27.2317 8.48152C27.2317 6.37516 28.9278 4.69753 31.0154 4.69753C31.7237 4.69753 32.3947 4.88393 32.9539 5.2381C33.0098 5.27538 33.0657 5.29402 33.1403 5.29402C33.2521 5.29402 33.3453 5.2381 33.4199 5.16354L34.3705 3.93328C33.4385 3.24358 32.2829 2.8335 31.0154 2.8335C27.884 2.8335 25.3491 5.36858 25.3491 8.50016C25.3491 11.6317 27.884 14.1668 31.0154 14.1668C32.2642 14.1668 33.4199 13.7567 34.3705 13.067L33.4012 11.8181ZM61.2295 8.68639C60.8567 7.58661 59.8129 6.78508 58.5827 6.78508C57.3712 6.78508 56.3274 7.58661 55.9546 8.68639H61.2295ZM54.0161 9.56249C54.0161 7.04604 56.0664 4.99561 58.5827 4.99561C61.1176 4.99561 63.1679 7.04604 63.1493 9.56249V9.76754L63.1306 10.2895C63.1306 10.3827 63.0561 10.4759 62.9443 10.4759H55.9546C56.346 11.557 57.3712 12.3213 58.5827 12.3213C59.3842 12.3213 60.1111 12.0044 60.3534 11.8739C60.4093 11.8553 60.4653 11.8366 60.5212 11.8366C60.6144 11.8366 60.7262 11.8925 60.7821 11.9671C60.8008 11.9857 61.7327 13.1974 61.7327 13.1974L61.565 13.3092C60.5025 13.9989 59.701 14.1294 58.7132 14.1294H58.5827C56.0664 14.1107 54.0161 12.0789 54.0161 9.56249ZM64.4169 14.1481C64.305 14.1481 64.2305 14.0736 64.2305 13.9617V5.48035C64.2305 5.38715 64.305 5.29395 64.4169 5.29395H65.8894C66.0012 5.29395 66.0757 5.38715 66.0757 5.48035V13.9617C66.0757 14.0736 65.9825 14.1481 65.8894 14.1481H64.4169ZM36.5141 9.50651C36.5141 7.978 37.7442 6.74774 39.2726 6.74774C40.8011 6.74774 42.0312 7.978 42.0312 9.50651C42.0312 11.035 40.8011 12.2653 39.2726 12.2653C37.7442 12.2653 36.5141 11.035 36.5141 9.50651ZM34.6501 9.52515C34.6501 12.0789 36.7191 14.148 39.2726 14.148C41.8262 14.148 43.8952 12.0789 43.8952 9.52515C43.8952 6.97142 41.8262 4.90234 39.2726 4.90234C36.7191 4.90234 34.6501 6.97142 34.6501 9.52515ZM71.5928 6.82253C70.083 6.82253 68.8528 8.05279 68.8528 9.56266C68.8528 11.0725 70.083 12.2842 71.5928 12.2842C73.1026 12.2842 74.3327 11.0539 74.3327 9.56266C74.3327 8.05279 73.1026 6.82253 71.5928 6.82253ZM71.5928 14.1295C69.0579 14.1295 67.0076 12.0791 67.0076 9.54402C67.0076 7.00893 69.0579 4.9585 71.5928 4.9585C74.1277 4.9585 76.178 7.00893 76.178 9.54402C76.178 12.0791 74.1277 14.1295 71.5928 14.1295ZM80.3455 8.5353C80.7376 8.63246 81.0952 8.72107 81.3784 8.85433C82.3849 9.3017 83 10.2896 83 11.2962C83 12.3028 82.4035 14.1295 79.8313 14.1295H79.794C78.5825 14.1295 77.6505 13.6076 77.1286 13.2162C77.0168 13.1416 76.7 12.8806 76.7 12.8806C76.7 12.8806 77.5946 11.7249 77.6133 11.7063C77.6878 11.6131 77.781 11.5572 77.8929 11.5572C77.9488 11.5572 77.9861 11.5572 78.0233 11.5758C78.0606 11.5945 78.1538 11.669 78.1724 11.6877C78.9926 12.3214 79.8872 12.396 80.4651 12.2282C80.987 12.0605 81.1733 11.669 81.1547 11.3149C81.1547 11.203 81.1361 11.1098 81.0988 11.0166C81.0056 10.8116 80.7819 10.5879 80.4651 10.4947C80.2826 10.4377 80.0461 10.3789 79.7875 10.3146C79.2007 10.1689 78.5005 9.99489 78.0606 9.74907C77.2778 9.3017 76.7559 8.57472 76.7559 7.56814C76.7559 6.89709 77.1287 5.01442 79.794 4.9585H79.9059C81.0601 4.9585 81.876 5.39836 82.1923 5.56893L82.2358 5.59227C82.3662 5.66683 82.4967 5.74139 82.5899 5.81595L82.739 5.94643L81.8071 7.13942C81.7325 7.23262 81.6393 7.28854 81.5275 7.28854C81.4716 7.28854 81.4156 7.2699 81.3597 7.23262C81.3597 7.23262 81.0056 7.02758 80.9124 6.99029C80.4278 6.76661 79.5517 6.58021 78.8994 7.02758C78.6198 7.23262 78.5079 7.60543 78.713 7.94095C78.8842 8.21211 79.2849 8.29752 79.7561 8.39795C79.9004 8.42869 80.0512 8.46084 80.2041 8.50016L80.3455 8.5353Z" fill="#171716"/>
</svg>
