<svg width="53" height="17" viewBox="0 0 53 17" fill="none" xmlns="http://www.w3.org/2000/svg">
<path fill-rule="evenodd" clip-rule="evenodd" d="M10.133 7.58554C10.0651 7.62552 9.95717 7.62152 9.88921 7.58154L9.49548 7.34768C9.4635 7.32769 9.43353 7.29571 9.41154 7.25773L9.41067 7.2567L9.40954 7.25473C9.40904 7.25373 9.40854 7.25274 9.40754 7.25173C9.38156 7.20976 9.36757 7.16778 9.36557 7.12781L9.35558 6.66808C9.35358 6.59013 9.40355 6.49618 9.4735 6.4562L14.2182 3.69183L7.56081 0.0599637C7.48686 0.0199873 7.39093 0 7.29499 0C7.19906 0 7.10113 0.0199873 7.02718 0.0599637L0.369746 3.68983L7.82863 8.03127C7.89858 8.06925 7.95054 8.1592 7.95054 8.23915V14.5734C7.95054 14.6534 7.89458 14.7453 7.82463 14.7813L7.4229 15.0052C7.38893 15.0232 7.34696 15.0332 7.30299 15.0332H7.29499C7.24703 15.0352 7.20106 15.0252 7.16708 15.0052L6.76536 14.7813C6.6974 14.7453 6.64144 14.6534 6.64144 14.5734V8.92675C6.63745 8.88477 6.60747 8.83481 6.57349 8.81681L0 4.99107V12.4847C0 12.6526 0.117919 12.8584 0.263819 12.9444L7.03117 16.936C7.10313 16.978 7.19906 17 7.29499 17C7.39093 17 7.48486 16.98 7.55681 16.936L14.3242 12.9444C14.4681 12.8584 14.586 12.6526 14.586 12.4847V4.99107L10.133 7.58554ZM52.0034 6.77864C52.0071 6.7777 52.0109 6.7772 52.0144 6.77673L52.0189 6.7761C52.0212 6.77573 52.0234 6.77529 52.0254 6.77463V12.2499L52.0174 12.252L52.0114 12.252C52.0074 12.6542 51.9453 13.0484 51.8153 13.4307C51.6452 13.937 51.359 14.3592 50.9168 14.6674C50.5966 14.8896 50.2385 15.0216 49.8563 15.0937C49.4861 15.1637 49.1139 15.1737 48.7377 15.1637C48.1854 15.1477 47.6411 15.0877 47.0989 14.9836C47.0468 14.9736 47.0308 14.9556 47.0308 14.9036C47.0328 14.4553 47.0328 14.007 47.0328 13.5588C47.0328 13.5528 47.0348 13.5468 47.0388 13.5349L47.0388 13.5348L47.0388 13.5347C47.0618 13.5301 47.0849 13.5361 47.107 13.5419C47.1137 13.5436 47.1203 13.5453 47.1269 13.5467C47.7392 13.6988 48.3615 13.7649 48.9918 13.7509C49.234 13.7449 49.4681 13.7028 49.6902 13.6008C50.0424 13.4367 50.2445 13.1605 50.3185 12.7823C50.3365 12.6842 50.3425 12.5862 50.3425 12.4861V8.03941L50.3427 8.01123V8.01119C50.343 7.97577 50.3432 7.95894 50.3353 7.94782C50.3282 7.93776 50.3144 7.93237 50.2883 7.92211L50.2683 7.91418L50.2565 7.90933C50.0744 7.83329 49.8823 7.79927 49.6882 7.78526C49.4 7.76525 49.1119 7.76124 48.8297 7.83129C48.2875 7.96537 47.9173 8.29757 47.7352 8.82189C47.5651 9.31018 47.5871 9.80248 47.7872 10.2768C48.0113 10.8091 48.4395 11.0973 48.9938 11.2153C49.1919 11.2574 49.394 11.2614 49.5961 11.2554C49.6682 11.2534 49.6702 11.2534 49.6702 11.3274V12.6342C49.6702 12.7022 49.6682 12.7062 49.6041 12.7102C48.8938 12.7623 48.2034 12.6882 47.5591 12.36C46.8387 11.9958 46.3605 11.4195 46.1244 10.651C45.9163 9.96858 45.8742 9.27216 46.0303 8.57374C46.2564 7.56713 46.8748 6.89472 47.8332 6.5285C48.1854 6.39442 48.5516 6.31837 48.9278 6.29436C49.9823 6.22631 51.0109 6.39642 52.0034 6.77864ZM33.7942 3.64047C33.7276 3.63983 33.7276 3.64275 33.728 3.72287L33.7281 3.74483V3.80288V6.36642C33.7281 6.37483 33.7285 6.38324 33.7288 6.3917C33.7302 6.42146 33.7316 6.45177 33.7161 6.4845C33.504 6.39444 33.2819 6.35241 33.0537 6.3264C32.5475 6.27236 32.0432 6.29239 31.551 6.43248C30.5185 6.72665 29.8181 7.37903 29.4919 8.40766C29.2758 9.09207 29.2658 9.78852 29.4359 10.4829C29.636 11.3014 30.1102 11.9138 30.8566 12.312C31.3769 12.5902 31.9392 12.7183 32.5235 12.7463C33.2959 12.7843 34.0642 12.7223 34.8266 12.5922C34.9967 12.5622 35.1648 12.5242 35.3329 12.4841C35.3789 12.4741 35.3989 12.4521 35.3929 12.4061C35.3916 12.3954 35.392 12.3847 35.3925 12.3741L35.3929 12.3639L35.3929 12.3581V3.75284C35.3929 3.74469 35.3927 3.73676 35.3925 3.72898C35.392 3.71387 35.3916 3.69933 35.3929 3.6848C35.3949 3.65078 35.3789 3.63878 35.3469 3.64078C35.3336 3.64211 35.3212 3.64168 35.3086 3.64124C35.3021 3.64101 35.2956 3.64078 35.2889 3.64078H33.8301L33.8033 3.64058L33.7942 3.64047ZM32.7657 7.76824C33.0546 7.76921 33.3406 7.82206 33.622 7.92338L33.6266 7.92502C33.6882 7.94715 33.713 7.95607 33.7225 7.9734C33.7289 7.98511 33.7282 8.00066 33.7272 8.02672C33.7267 8.03905 33.7261 8.05373 33.7261 8.07148C33.7281 8.58481 33.7281 9.09813 33.7281 9.61346V9.61639V11.1433C33.7281 11.15 33.7278 11.1565 33.7276 11.1629V11.163C33.7272 11.1757 33.7267 11.1881 33.7281 11.2013C33.7341 11.2514 33.7101 11.2674 33.6641 11.2754C33.51 11.3014 33.3539 11.3154 33.1958 11.3254C32.8656 11.3434 32.5375 11.3334 32.2173 11.2354C31.551 11.0313 31.1688 10.579 31.0507 9.89856C30.9887 9.54434 31.0007 9.19014 31.1108 8.84394C31.2909 8.2876 31.675 7.94539 32.2433 7.82332C32.4182 7.78579 32.5924 7.76767 32.7657 7.76824ZM24.6635 6.37041C24.9336 6.33589 25.2037 6.31824 25.4747 6.3158C25.5651 6.31499 25.6555 6.31584 25.746 6.31834C26.1142 6.33035 26.4784 6.38039 26.8306 6.49646C27.575 6.74261 28.0672 7.24492 28.3333 7.97536C28.4554 8.31157 28.5174 8.65978 28.5515 9.014C28.5735 9.26215 28.5755 9.51231 28.5755 9.76246V12.366C28.5755 12.3815 28.5757 12.3947 28.5759 12.4061C28.5765 12.4428 28.5768 12.4601 28.5683 12.4704C28.5608 12.4796 28.5461 12.483 28.5184 12.4894L28.5183 12.4894L28.4986 12.4941C28.4893 12.4963 28.479 12.4989 28.4674 12.5021C28.0512 12.6162 27.629 12.7102 27.2008 12.7663C26.7625 12.8243 26.3223 12.8503 25.8801 12.8543L25.8087 12.8551H25.8086C25.6404 12.8571 25.4721 12.8591 25.3038 12.8503C24.7755 12.8203 24.2713 12.7102 23.811 12.4381C23.4188 12.2059 23.1167 11.8877 22.9726 11.4495C22.7885 10.8931 22.8385 10.3488 23.1247 9.83649C23.3508 9.43425 23.711 9.19411 24.1372 9.04402C24.4694 8.92795 24.8155 8.8799 25.1657 8.8779C25.4896 8.8755 25.8142 8.87527 26.1387 8.87503H26.1388H26.1388H26.1389H26.1389C26.3556 8.87487 26.5723 8.87472 26.7886 8.87391C26.7962 8.87391 26.8037 8.87416 26.8111 8.8744C26.8407 8.87536 26.8698 8.87631 26.9066 8.86192C26.8546 8.57574 26.7665 8.31157 26.5704 8.09544C26.3964 7.90132 26.1723 7.80125 25.9181 7.75722C25.7518 7.72746 25.584 7.72987 25.416 7.73228L25.3438 7.73322C24.6495 7.73923 23.9891 7.9013 23.3508 8.16947C23.3227 8.18213 23.2935 8.19282 23.2641 8.20362L23.2641 8.20363L23.264 8.20365L23.2639 8.20369C23.2516 8.20822 23.2392 8.21278 23.2268 8.2175C23.2094 8.20012 23.2107 8.18274 23.212 8.16536C23.2124 8.16074 23.2127 8.15611 23.2127 8.15149C23.2127 7.71522 23.2127 7.28094 23.2107 6.84468C23.2107 6.78264 23.2308 6.75663 23.2868 6.73461C23.729 6.5505 24.1892 6.43044 24.6635 6.37041ZM25.7553 10.2143C25.6474 10.214 25.5394 10.2137 25.4317 10.2139C25.3669 10.214 25.3023 10.2142 25.2378 10.2147C25.0777 10.2167 24.9196 10.2407 24.7715 10.3108C24.5734 10.4068 24.4814 10.5649 24.4914 10.781C24.4994 10.9592 24.5814 11.0993 24.7195 11.2073C24.8436 11.3054 24.9856 11.3614 25.1337 11.4035C25.3418 11.4615 25.5539 11.4875 25.768 11.4975C26.1182 11.5155 26.4664 11.4995 26.8126 11.4595L26.8126 11.4595L26.8126 11.4595C26.8687 11.4534 26.8967 11.4504 26.9107 11.4349C26.9246 11.4193 26.9246 11.3913 26.9246 11.3354V11.3354V10.2888C26.9246 10.2167 26.9226 10.2147 26.8506 10.2147H26.0161L26.0161 10.2158L26.016 10.2162C26.0158 10.2163 26.0156 10.2161 26.0152 10.2157L26.0141 10.2147C25.928 10.2147 25.8417 10.2145 25.7553 10.2143ZM42.1203 6.32038C41.8502 6.32438 41.5501 6.35237 41.2579 6.42841C40.2674 6.69257 39.553 7.28496 39.1668 8.24154C38.8867 8.93596 38.8487 9.65637 39.0248 10.3808C39.2769 11.4254 39.9072 12.1579 40.9157 12.5381C41.7061 12.8363 42.5145 12.8383 43.3129 12.5601C44.2374 12.2379 44.8697 11.6075 45.1899 10.681C45.442 9.95455 45.446 9.21413 45.2199 8.48169C44.9698 7.6732 44.4615 7.06883 43.7072 6.6806C43.2189 6.43045 42.6966 6.32638 42.1203 6.32038ZM42.1274 7.76379C42.1855 7.76331 42.2439 7.76582 42.3024 7.77126C42.8667 7.82329 43.407 8.17951 43.6091 8.92196C43.6331 9.01201 43.6511 9.10205 43.6651 9.19411C43.6811 9.30818 43.6931 9.42626 43.6911 9.4923C43.6871 9.87853 43.6371 10.2007 43.481 10.5009C43.1869 11.0712 42.7106 11.3354 42.0743 11.3174C41.406 11.2974 40.9177 10.8871 40.7236 10.3048C40.5355 9.74044 40.5415 9.17808 40.7836 8.62975C41.0393 8.05121 41.5662 7.76852 42.1274 7.76379ZM18.7325 13.6248C18.5544 13.6008 18.3803 13.5608 18.1942 13.5067C18.1942 13.5868 18.1942 13.6528 18.1982 13.7229V14.9816C18.1982 15.0573 18.2002 15.0577 18.2731 15.0715L18.2742 15.0717C18.2778 15.0729 18.2814 15.0741 18.285 15.0748C18.2874 15.0754 18.2898 15.0757 18.2922 15.0757C18.8205 15.1497 19.3488 15.1958 19.8811 15.1577C20.1492 15.1377 20.4153 15.0977 20.6735 15.0217C21.3418 14.8235 21.794 14.4013 21.9981 13.7269C22.1002 13.3847 22.1282 13.0345 22.1282 12.6822V6.63058L22.1281 6.62006L22.1277 6.60672C22.1273 6.59161 22.1269 6.57708 22.1282 6.56254C22.1302 6.52652 22.1162 6.50851 22.0782 6.51051C22.0621 6.51185 22.0469 6.5114 22.032 6.51095C22.0247 6.51073 22.0174 6.51051 22.0101 6.51051H20.5694C20.5518 6.51051 20.5367 6.5102 20.5238 6.50992C20.4851 6.50912 20.4656 6.50871 20.4558 6.51829C20.4459 6.5281 20.4462 6.54839 20.4469 6.58945C20.4471 6.60184 20.4473 6.61613 20.4473 6.63258V12.5982C20.4473 12.6943 20.4433 12.7903 20.4273 12.8844C20.3893 13.0925 20.3113 13.2766 20.1512 13.4207C19.9911 13.5648 19.795 13.6288 19.5849 13.6548C19.2988 13.6889 19.0146 13.6608 18.7325 13.6248ZM38.1763 8.16748V12.5661C38.1763 12.5848 38.1769 12.6005 38.1773 12.6137C38.1784 12.6457 38.179 12.6632 38.1705 12.6728C38.1602 12.6845 38.1365 12.6845 38.0839 12.6843C38.0766 12.6842 38.0687 12.6842 38.0603 12.6842H36.6196H36.5615C36.5275 12.6862 36.5155 12.6682 36.5175 12.6362V12.5781V3.7428V3.71478V3.71461C36.5195 3.64273 36.5196 3.64074 36.5915 3.64074H38.0803C38.0881 3.64074 38.0953 3.6407 38.1019 3.64066C38.1415 3.64044 38.1604 3.64033 38.1694 3.64974C38.1775 3.65836 38.1772 3.67497 38.1767 3.70682C38.1765 3.71612 38.1763 3.72672 38.1763 3.73879V7.90732V8.16748ZM21.2858 5.70801C21.742 5.71601 22.1142 5.35179 22.1242 4.88751C22.1342 4.43524 21.768 4.05701 21.3158 4.045C20.8536 4.03499 20.4734 4.39521 20.4634 4.85149C20.4534 5.32377 20.8135 5.7 21.2858 5.70801Z" fill="#171716"/>
</svg>
