<svg width="82" height="11" viewBox="0 0 82 11" fill="none" xmlns="http://www.w3.org/2000/svg">
<path fill-rule="evenodd" clip-rule="evenodd" d="M1.28432 9.68395V2.91155H4.19065C5.64012 2.96101 6.25517 3.4675 6.28598 4.69715C6.28598 5.5711 6.06659 6.13292 5.36281 6.58166C5.96182 6.79365 6.29215 7.06925 6.28598 7.74886V9.69106H4.53576V8.13754C4.54439 7.56158 4.35208 7.33423 3.75311 7.32836H2.95812V9.68395H1.28432ZM4.45566 6.37081V6.36841H4.46183L4.45566 6.37081ZM4.45566 6.36841H2.8817V5.08817H2.30362L3.65941 3.76899L5.06206 5.12232H4.45566V6.36841ZM1.27938 1.86097H7.4421V9.68989H6.65576L8.08672 11.0043L9.44252 9.68989H8.65865V1.86097H14.6155V2.62065L15.8999 1.2956L14.6155 0V0.684297H1.27938V0L0 1.2956L1.27938 2.62065V1.86097ZM9.81354 2.91155H14.6205V4.24011H12.0149V3.557L10.7355 4.85258L12.0149 6.17647V5.41794H14.6291V7.10694H12.0149V6.42617L10.7355 7.72178L12.0149 9.04683V8.2871H14.6291V9.68395H9.82214L9.81354 2.91155ZM28.9524 5.41812C28.9524 5.91438 29.0837 6.28736 29.3456 6.53706C29.6095 6.78676 30.0013 6.9104 30.5254 6.9104C31.0491 6.9104 31.4557 6.79262 31.7233 6.54293C31.9907 6.29323 32.125 5.93402 32.125 5.4511C32.125 4.92579 31.9878 4.52613 31.7135 4.25209C31.4389 3.97805 31.0376 3.84023 30.5092 3.83866C30.0164 3.83866 29.6338 3.97648 29.3618 4.25209C29.0898 4.52766 28.9535 4.91635 28.9524 5.41812ZM30.4316 7.90096C29.2977 7.90096 28.4349 7.68461 27.8433 7.25197C27.2516 6.8193 26.9566 6.18799 26.9583 5.35803C26.9583 4.55164 27.2701 3.9317 27.8938 3.49829C28.5174 3.06484 29.4088 2.84812 30.5672 2.84812C31.7176 2.84812 32.595 3.0664 33.1999 3.50299C33.8044 3.93957 34.1061 4.57522 34.1045 5.40988C34.1045 6.22727 33.794 6.84641 33.1728 7.26728C32.5517 7.68818 31.635 7.89899 30.4229 7.89979L30.4316 7.90096ZM36.4537 4.00473H37.3944C38.03 4.00473 38.5158 4.13311 38.8253 4.35807C39.1344 4.58302 39.2925 4.92225 39.2925 5.39687C39.2925 5.87156 39.1434 6.21546 38.8413 6.42982C38.5422 6.6442 38.0597 6.75138 37.3944 6.75138H36.4537V4.00473ZM34.5039 2.93409V7.8173H37.9686C39.0477 7.8181 39.869 7.61472 40.4336 7.20719C40.9978 6.79966 41.2803 6.20526 41.2803 5.42399C41.2796 4.61363 40.9805 3.99609 40.3832 3.57129C39.786 3.14648 38.919 2.93409 37.7822 2.93409H34.5039ZM43.6559 5.41811C43.6559 5.91438 43.7866 6.28736 44.049 6.53706C44.3125 6.78675 44.7046 6.9104 45.2282 6.9104C45.752 6.9104 46.1589 6.79262 46.4276 6.54292C46.6964 6.29326 46.8285 5.93402 46.8285 5.45109C46.8285 4.92579 46.6908 4.52613 46.4166 4.25209C46.1419 3.97648 45.7424 3.83866 45.2122 3.83866C44.7193 3.83866 44.3368 3.97648 44.0647 4.25209C43.7926 4.5277 43.6562 4.91638 43.6559 5.41811ZM45.1348 7.90096C44.0007 7.90096 43.1377 7.68461 42.5464 7.25197C41.9545 6.8193 41.6594 6.18762 41.6601 5.35689C41.6601 4.55047 41.9719 3.93056 42.5955 3.49709C43.219 3.06366 44.1117 2.84734 45.2725 2.84812C46.423 2.84812 47.3007 3.0664 47.9052 3.50299C48.5101 3.93956 48.8113 4.57522 48.8089 5.40988C48.8089 6.22727 48.4981 6.84641 47.8769 7.26728C47.2556 7.68818 46.3389 7.89899 45.1261 7.89979L45.1348 7.90096ZM49.2661 2.93409V7.8173H51.1025V4.52883L53.6158 7.8173H56.1328V2.93409H54.2911V6.21076L51.6931 2.93409H49.2661ZM61.2698 5.8704L60.3524 4.09539L59.383 5.8704H61.2698ZM58.3486 7.8173H56.4269L59.395 2.93409H61.5225L64.3577 7.8173H62.2178L61.7863 6.93511H58.8108L58.3486 7.8173ZM67.1388 7.8173H65.0106L62.1795 2.93409H64.3154L66.0754 6.29319L67.8938 2.93409H70.107L67.1388 7.8173ZM70.4018 7.8173V2.93409H75.5072V3.98705H72.3196V4.76439H75.2681V5.8044H72.3196V6.75138H75.6279V7.8173H70.4018ZM77.8734 6.22258V6.20961L75.99 6.20607V6.2685C75.99 6.83622 76.2134 7.25082 76.6632 7.50642C77.1131 7.76199 77.823 7.89154 78.8457 7.89154C79.8688 7.89154 80.6478 7.75725 81.189 7.49108C81.7299 7.22488 82 6.84209 82 6.34626C82.0023 6.13761 81.9483 5.93193 81.8439 5.74879C81.7392 5.56569 81.5872 5.41129 81.4024 5.30035C81.211 5.1872 81.0063 5.09627 80.7922 5.02944C80.402 4.91873 80.0059 4.82906 79.6054 4.7609L79.2526 4.69848C78.4713 4.55479 78.0808 4.38282 78.0808 4.17904C78.0838 4.11925 78.1061 4.06179 78.1441 4.01441C78.1825 3.96702 78.2352 3.93201 78.2949 3.91407C78.4963 3.84428 78.7097 3.81306 78.9238 3.82217C79.1959 3.80806 79.468 3.85275 79.7198 3.95292C79.8001 3.983 79.8688 4.03548 79.9175 4.10358C79.9662 4.17164 79.9925 4.25214 79.9925 4.33454V4.35811H81.7772V4.30389C81.7856 4.07763 81.7245 3.85395 81.6018 3.66034C81.4788 3.46676 81.2994 3.31176 81.0856 3.21443C80.6334 2.97888 79.9348 2.86108 78.9898 2.86108C78.0288 2.86108 77.3015 2.98711 76.8086 3.23917C76.3154 3.4912 76.0693 3.85751 76.0693 4.33807C76.066 4.52014 76.105 4.70055 76.1827 4.86691C76.2614 5.02641 76.3778 5.16626 76.5228 5.27561C76.8326 5.51197 77.5276 5.73025 78.608 5.93047L78.7991 5.96701L78.9778 5.99996C79.6584 6.12638 79.9985 6.28971 79.9985 6.48992C79.9985 6.62304 79.9118 6.72788 79.7408 6.80324C79.514 6.88921 79.2709 6.92933 79.0272 6.92102C78.628 6.92102 78.3342 6.8751 78.1435 6.78203C78.0574 6.74639 77.9841 6.687 77.9331 6.61153C77.882 6.53604 77.8557 6.44784 77.8577 6.35803C77.8597 6.31258 77.865 6.26733 77.8734 6.22258ZM22.6258 3.92316V4.89955H23.7141C23.9134 4.91355 24.1127 4.87264 24.2885 4.7818C24.3498 4.74082 24.3989 4.68526 24.4309 4.62061C24.4629 4.55595 24.4767 4.48445 24.4709 4.41312C24.4778 4.34143 24.4654 4.26923 24.4347 4.20344C24.4041 4.13761 24.3563 4.08049 24.2959 4.03741C24.1174 3.94651 23.9158 3.90569 23.7141 3.91963L22.6258 3.92316ZM20.7067 7.81703V2.93379H23.9927C24.4602 2.92319 24.9279 2.94207 25.3928 2.99035C25.6045 3.01593 25.809 3.07988 25.9956 3.17878C26.1676 3.27628 26.3076 3.41783 26.3998 3.58746C26.4972 3.7667 26.5464 3.96628 26.5428 4.16816C26.5471 4.31819 26.515 4.46714 26.4492 4.60337C26.3833 4.73965 26.2855 4.85953 26.1632 4.95377C25.8617 5.17499 25.4943 5.29877 25.1143 5.30711C25.581 5.32832 25.9142 5.40485 26.1139 5.53677C26.316 5.66752 26.4343 5.89011 26.4725 6.19399L26.5773 7.00551C26.5958 7.12933 26.6218 7.25201 26.655 7.37299C26.692 7.51431 26.7388 7.66274 26.793 7.82294H24.8049C24.7655 7.72733 24.7358 7.62832 24.7162 7.52729C24.6925 7.4007 24.6769 7.27285 24.6693 7.1445L24.6151 6.46843C24.6003 6.25052 24.5411 6.10212 24.4425 6.02556C24.3439 5.94903 24.1406 5.90778 23.8336 5.90778H22.6258V7.81703H20.7067ZM20.708 8.74158H81.995V9.68499H20.708V8.74158Z" fill="#171716"/>
</svg>
