<svg width="47" height="17" viewBox="0 0 47 17" fill="none" xmlns="http://www.w3.org/2000/svg">
<path fill-rule="evenodd" clip-rule="evenodd" d="M38.5025 0C35.2398 0 32.4049 1.86334 30.9932 4.58326C29.5783 1.86334 26.7445 0 23.4828 0C20.2212 0 17.3863 1.86334 15.9736 4.58326C14.5608 1.86334 11.7248 0 8.46219 0C3.79608 0 0 3.81368 0 8.50052C0 13.1874 3.79608 17 8.46219 17C11.7238 17 14.5608 15.1367 15.9736 12.4136C17.3863 15.1356 20.2202 17 23.4828 17C26.7455 17 29.5794 15.1367 30.9932 12.4136C32.4039 15.1356 35.2398 17 38.5025 17C43.1696 17 46.9657 13.1874 46.9657 8.50052C46.9657 3.81368 43.1696 0 38.5025 0ZM8.46219 15.0849C4.84841 15.0849 1.90684 12.1298 1.90684 8.50052C1.90684 4.8712 4.84841 1.91824 8.46219 1.91824C12.076 1.91824 15.0175 4.87016 15.0175 8.50052C15.0175 12.1309 12.076 15.0849 8.46219 15.0849ZM23.4828 15.0849C19.868 15.0849 16.9265 12.1298 16.9265 8.50052C16.9265 4.8712 19.868 1.91824 23.4828 1.91824C27.0977 1.91824 30.0403 4.87016 30.0403 8.50052C30.0403 12.1309 27.0966 15.0849 23.4828 15.0849ZM38.5025 15.0849C34.8856 15.0849 31.9481 12.1298 31.9481 8.50052C31.9481 4.8712 34.8856 1.91824 38.5025 1.91824C42.1194 1.91824 45.0578 4.87016 45.0578 8.50052C45.0578 12.1309 42.1142 15.0849 38.5025 15.0849ZM41.8915 5.04202C41.8915 4.9198 41.79 4.81933 41.6678 4.81933H35.3299C35.2077 4.81933 35.1062 4.9198 35.1062 5.04202V6.4693C35.1062 6.59152 35.2077 6.69199 35.3299 6.69199H37.0586C37.2326 6.68888 37.388 6.66195 37.388 6.66195V12.3048C37.388 12.4291 37.4885 12.5296 37.6138 12.5296H39.3849C39.5103 12.5296 39.6107 12.4291 39.6107 12.3048V6.66195C39.6107 6.66195 39.821 6.69199 40.0313 6.69199H41.6678C41.79 6.69199 41.8915 6.59152 41.8915 6.4693V5.04202ZM11.8554 5.04617C11.8554 4.92292 11.7549 4.82245 11.6316 4.82245H5.2938C5.17054 4.82245 5.06904 4.92188 5.06904 5.04617V6.47035C5.06904 6.59464 5.16951 6.69511 5.2938 6.69511H7.02353C7.19546 6.692 7.35186 6.66507 7.35186 6.66507V12.3079C7.35186 12.4322 7.45233 12.5327 7.57455 12.5327H9.34985C9.47414 12.5327 9.57254 12.4322 9.57254 12.3079V6.66507C9.57254 6.66507 9.78487 6.69511 9.99617 6.69511H11.6316C11.7549 6.69511 11.8554 6.59464 11.8554 6.47035V5.04617ZM26.9868 4.90848C26.9868 4.78522 26.8884 4.68164 26.7527 4.68164C26.646 4.68164 25.0914 4.68475 25.0914 4.68475C24.9681 4.68475 24.8676 4.78418 24.8676 4.90848V8.91067C24.8676 8.91067 24.7754 8.68487 24.6853 8.56265C24.5735 8.40625 21.9354 4.80904 21.9354 4.80904C21.8846 4.74172 21.7738 4.68475 21.6868 4.68475H20.2036C20.0814 4.68475 19.9819 4.78418 19.9819 4.90848V12.0894C19.9819 12.2148 20.0814 12.3152 20.2036 12.3152H21.8753C21.9986 12.3152 22.1001 12.2148 22.1001 12.0894V8.08724C22.1001 8.08724 22.1891 8.31303 22.2803 8.43525C22.3487 8.53054 25.0323 12.1899 25.0323 12.1899C25.0831 12.2583 25.1939 12.3152 25.2788 12.3152H26.761C26.8853 12.3152 26.9868 12.2148 26.9868 12.0894V4.90848Z" fill="#171716"/>
</svg>
