<svg width="14" height="14" viewBox="0 0 14 14" fill="none" xmlns="http://www.w3.org/2000/svg">
<path d="M7 0C3.13413 0 0 3.13413 0 7C0 10.8659 3.13413 14 7 14C10.8659 14 14 10.8659 14 7C14 3.13413 10.8659 0 7 0ZM10.2629 6.39753C10.0627 7.72613 9.83127 9.05007 9.60587 10.3745C9.52793 10.8155 8.9754 11.0437 8.62213 10.7618C7.77233 10.1878 6.91647 9.6194 6.0774 9.03233C5.80253 8.75327 6.05733 8.35193 6.3028 8.15267C6.986 7.47927 7.714 6.90853 8.36127 6.20247C8.40327 6.15673 8.43033 6.10167 8.43873 6.05967C8.4546 5.9794 8.40747 5.9584 8.35753 5.96167C8.2292 5.9696 7.99213 6.1264 7.88433 6.19547C6.92627 6.8558 5.99153 7.55627 4.98167 8.13633C4.46553 8.42053 3.86447 8.17787 3.3488 8.0192C2.88633 7.82787 2.20873 7.63467 2.60727 7.343C3.42533 6.8922 4.33907 6.51607 5.1926 6.13807C6.66073 5.5188 8.13493 4.91027 9.62407 4.34373C9.91387 4.24713 10.4342 4.15287 10.4855 4.5822C10.4575 5.1898 10.3427 5.79413 10.2639 6.39847L10.2629 6.39753Z" fill="#171716"/>
</svg>
