<svg width="65" height="17" viewBox="0 0 65 17" fill="none" xmlns="http://www.w3.org/2000/svg">
<path d="M8.58097 0C13.2752 0.000347507 17.0956 3.76733 17.0956 8.39941C17.0955 10.684 16.1889 12.9114 14.6034 14.4189C14.6045 14.4186 14.6064 14.4184 14.6073 14.418C14.602 14.423 14.5951 14.4277 14.5898 14.4326C14.587 14.4352 14.5846 14.4388 14.582 14.4414H14.579C14.1434 14.8476 13.6571 15.2021 13.1269 15.4873V15.4902L13.0663 15.5195C12.5403 15.7944 11.9683 16.0041 11.3573 16.1348L11.2939 16.1484L11.2734 16.1533C10.505 16.3123 9.81824 16.2726 9.21476 15.9844C8.1888 15.4924 7.4987 14.4565 7.43742 12.7393H7.43644V8.61328C7.43649 8.26815 7.54761 7.97433 7.77629 7.72656C8.23489 7.24997 8.97617 7.24995 9.43351 7.72656C9.66198 7.97427 9.77526 8.2683 9.77531 8.61328V12.2324C9.79308 12.9436 9.91568 13.5058 10.1249 13.9365C10.4728 14.1102 11.132 13.8593 11.5048 13.7012L11.5409 13.6846L11.5527 13.6797L11.579 13.668C13.7083 12.711 14.7646 10.6388 14.7646 8.39746C14.7645 8.03421 14.7302 7.67913 14.6679 7.33398L14.6318 7.15918C14.2005 5.11746 12.7165 3.34924 10.5644 2.62793C4.37282 0.553026 -0.36528 8.19082 4.09465 12.7344C4.36956 12.944 4.54625 13.274 4.54875 13.6426C4.55236 14.2823 4.02832 14.8038 3.3798 14.8076C2.99879 14.81 2.65748 14.632 2.44133 14.3535C-0.288887 11.5895 -0.540564 8.01105 0.757732 5.11328L0.887615 4.83594C0.915594 4.79446 0.944733 4.75371 0.973552 4.71289C2.30525 2.03823 5.03413 0.000172374 8.58097 0ZM60.2177 4.69141C61.5037 4.69141 62.459 4.98449 63.0839 5.57129C63.7088 6.15819 64.0214 7.06878 64.0214 8.30176V12.5693C64.0213 13.3272 63.6724 13.707 62.9765 13.707C62.2804 13.707 61.9131 13.3273 61.913 12.5693V12.1777C61.708 12.6635 61.3843 13.0465 60.9394 13.3252C60.4944 13.6038 59.9649 13.7432 59.3525 13.7432L59.1161 13.7344C58.5744 13.7077 58.0847 13.5875 57.6484 13.375C57.1497 13.1321 56.7589 12.803 56.4765 12.3887C56.1942 11.9733 56.0536 11.5058 56.0536 10.9844C56.0537 10.3445 56.2223 9.83743 56.5585 9.46387C56.8948 9.09047 57.4422 8.82044 58.1982 8.65527C58.9556 8.48884 59.9705 8.40625 61.2441 8.40625H61.8749V8.0332C61.8749 7.44014 61.7422 7.01309 61.4784 6.75293C61.2135 6.49295 60.7701 6.36232 60.1454 6.3623C59.7968 6.3623 59.4218 6.40376 59.0195 6.48633C58.617 6.56894 58.1929 6.71211 57.748 6.91309C57.4595 7.04367 57.2197 7.05885 57.0273 6.95801C56.8348 6.8569 56.7058 6.69701 56.6396 6.47754C56.5735 6.25819 56.5858 6.03605 56.6757 5.81055C56.7657 5.58632 56.9494 5.41971 57.2255 5.3125C57.7779 5.08689 58.3103 4.92672 58.8202 4.83301C59.3314 4.73808 59.7965 4.69142 60.2177 4.69141ZM40.5302 4.69043C41.4438 4.69046 42.2364 4.87381 42.9101 5.24121C43.5824 5.60863 44.106 6.1301 44.4784 6.80566C44.8509 7.48127 45.037 8.28144 45.037 9.20605C45.037 10.1306 44.8508 10.9335 44.4784 11.6152C44.1061 12.2969 43.5836 12.8211 42.9101 13.1885C42.2377 13.5559 41.4438 13.7402 40.5302 13.7402C39.6165 13.7402 38.824 13.5559 38.1503 13.1885C37.4779 12.8211 36.9544 12.297 36.582 11.6152C36.2095 10.9334 36.0234 10.1307 36.0234 9.20605C36.0234 8.28144 36.2095 7.48127 36.582 6.80566C36.9544 6.13008 37.4767 5.60861 38.1503 5.24121C38.8227 4.87378 39.6165 4.69043 40.5302 4.69043ZM47.3808 0.883789C48.1255 0.883888 48.5155 1.2578 48.5155 2.00488V6.14746C48.7805 5.70861 49.1615 5.35615 49.6601 5.08984C50.1587 4.82358 50.7199 4.69049 51.3446 4.69043C52.1258 4.69043 52.8053 4.87378 53.3827 5.24121C53.9587 5.60856 54.4094 6.12644 54.7343 6.79688C55.0592 7.4663 55.2206 8.27037 55.2206 9.20605C55.2206 10.1418 55.058 10.9334 54.7343 11.6152C54.4094 12.2969 53.9562 12.8211 53.3739 13.1885C52.7916 13.5559 52.1151 13.7402 51.3466 13.7402L51.1073 13.7334C50.5555 13.7029 50.0579 13.566 49.6161 13.3223C49.1113 13.0436 48.7328 12.667 48.4804 12.1924V12.5664C48.4803 13.3245 48.1142 13.704 47.3808 13.7041C46.6472 13.7041 46.2636 13.3246 46.2636 12.5664V2.00488C46.2636 1.2577 46.6359 0.883789 47.3808 0.883789ZM28.7577 4.69043C29.2749 4.63136 29.5619 4.92072 29.622 5.56152C29.682 6.19021 29.3701 6.53971 28.6855 6.61133L28.289 6.64648C26.8106 6.78826 26.0714 7.53568 26.0712 8.88672V12.5674C26.0712 13.3256 25.6928 13.706 24.9355 13.7061L24.7958 13.7002C24.1201 13.6557 23.7821 13.2773 23.7821 12.5664V5.8457C23.7821 5.09852 24.1481 4.72461 24.8818 4.72461C25.6154 4.72464 25.9814 5.09855 25.9814 5.8457V6.39648C26.4138 5.37683 27.3391 4.80879 28.7577 4.69043ZM35.1943 4.69043C35.7104 4.63126 35.9994 4.92059 36.0595 5.56152C36.1195 6.19032 35.8069 6.5398 35.122 6.61133L34.7255 6.64648C33.2472 6.78829 32.5089 7.53572 32.5087 8.88672V12.5674C32.5087 13.3257 32.1294 13.7061 31.372 13.7061L31.2323 13.7002C30.5569 13.6556 30.2187 13.2772 30.2187 12.5664V5.8457C30.2187 5.09861 30.5848 4.7247 31.3183 4.72461C32.0519 4.72461 32.4189 5.09852 32.4189 5.8457V6.39648C32.8513 5.377 33.7759 4.80881 35.1943 4.69043ZM20.9325 4.74121C21.6772 4.74136 22.0683 5.14403 22.0683 5.9502V12.4766C22.0683 12.8563 21.9717 13.152 21.7792 13.3652C21.5868 13.5784 21.3048 13.6855 20.9325 13.6855C20.5713 13.6855 20.2947 13.5798 20.1034 13.3652C19.911 13.152 19.8144 12.8562 19.8144 12.4766V5.9502C19.8144 5.14388 20.1876 4.74121 20.9325 4.74121ZM61.2626 9.68652C60.1328 9.68653 59.3488 9.77296 58.9101 9.94434C58.4718 10.1157 58.252 10.4272 58.2519 10.877C58.2519 11.2678 58.3907 11.5888 58.6669 11.8379C58.9431 12.0868 59.3279 12.2109 59.8202 12.2109L60.0361 12.2002C60.5297 12.1563 60.9477 11.9583 61.289 11.6055C61.6787 11.2023 61.8749 10.6935 61.8749 10.0771V9.68652H61.2626ZM40.5302 6.37891C39.8566 6.37891 39.3168 6.6136 38.9081 7.08203C38.4995 7.55052 38.2949 8.25804 38.2948 9.20605C38.2948 10.1542 38.4994 10.8514 38.9081 11.3311C39.3168 11.8104 39.8579 12.0508 40.5302 12.0508C41.2024 12.0507 41.7436 11.8105 42.1523 11.3311C42.561 10.8514 42.7646 10.1419 42.7646 9.20605C42.7645 8.27038 42.5609 7.54928 42.1523 7.08203C41.7436 6.61354 41.2038 6.37895 40.5302 6.37891ZM50.7167 6.37891C50.043 6.37891 49.5024 6.6135 49.0937 7.08203C48.6851 7.55051 48.4814 8.25821 48.4814 9.20605C48.4814 10.1542 48.6862 10.8514 49.0937 11.3311C49.5024 11.8107 50.0443 12.0508 50.7167 12.0508C51.3902 12.0507 51.9302 11.8105 52.3388 11.3311C52.7475 10.8514 52.9511 10.1419 52.9511 9.20605C52.951 8.27044 52.7474 7.54928 52.3388 7.08203C51.9302 6.61358 51.3902 6.37899 50.7167 6.37891ZM8.58879 4.55859C9.24603 4.5588 9.77922 5.08375 9.77922 5.7334C9.77907 6.38292 9.24719 6.90702 8.58879 6.90723C7.9302 6.90723 7.3985 6.38182 7.39836 5.7334C7.39836 5.08485 7.93136 4.55859 8.58879 4.55859ZM20.9413 2.18457C21.5011 2.18478 21.955 2.63233 21.955 3.18457C21.955 3.73679 21.5011 4.18436 20.9413 4.18457C20.3814 4.18457 19.9277 3.73692 19.9277 3.18457C19.9277 2.6322 20.3814 2.18457 20.9413 2.18457Z" fill="#171716"/>
</svg>
