<svg width="84" height="30" viewBox="0 0 84 30" fill="none" xmlns="http://www.w3.org/2000/svg">
<path fill-rule="evenodd" clip-rule="evenodd" d="M1.87601 0H19.3747C20.345 0 21.4286 1.1159 21.4286 1.90836V4.09164H0V1.90836C0 1.1159 0.90566 0 1.87601 0ZM1.87601 2.63612C1.87601 2.97574 2.16712 3.26685 2.50674 3.26685C2.86253 3.26685 3.13747 2.97574 3.13747 2.63612C3.13747 2.2965 2.86253 2.00539 2.50674 2.00539C2.15094 2.00539 1.87601 2.2965 1.87601 2.63612ZM4.14016 2.63612C4.14016 2.97574 4.43127 3.26685 4.77089 3.26685C5.12668 3.26685 5.40162 2.97574 5.40162 2.63612C5.40162 2.2965 5.12668 2.00539 4.77089 2.00539C4.41509 2.00539 4.14016 2.2965 4.14016 2.63612ZM33.5622 10.4462V12.4876H38.3951C38.2469 13.6148 37.8708 14.44 37.2992 15.0177C36.5943 15.7301 35.4941 16.5141 33.5622 16.5141C30.5837 16.5141 28.2543 14.0882 28.2543 11.0782C28.2543 8.0681 30.5837 5.64225 33.5622 5.64225C35.1696 5.64225 36.3429 6.28075 37.2089 7.10167L38.6358 5.65963C37.4281 4.4934 35.8207 3.59863 33.5643 3.59863C29.4856 3.59863 26.0559 6.95617 26.0559 11.0782C26.0559 15.2001 29.4856 18.5577 33.5643 18.5577C35.7648 18.5577 37.426 17.828 38.7261 16.4598C40.0627 15.1089 40.4775 13.213 40.4775 11.6797C40.4775 11.2237 40.4431 10.8023 40.3765 10.4462H33.5622ZM74.3298 18.2644V4.14795H72.2883V18.2644H74.3298ZM46.0712 18.5597C48.7058 18.5597 50.8526 16.5161 50.8526 13.7427C50.8526 10.9499 48.7058 8.92578 46.0712 8.92578C43.4366 8.92578 41.2898 10.9694 41.2898 13.7427C41.2898 16.5161 43.4366 18.5597 46.0712 18.5597ZM46.0712 10.8239C47.5153 10.8239 48.7595 12.0097 48.7595 13.7427C48.7595 15.4562 47.5153 16.6616 46.0712 16.6616C44.6271 16.6616 43.3829 15.4758 43.3829 13.7427C43.3829 12.0097 44.6271 10.8239 46.0712 10.8239ZM56.3861 18.5597C59.0207 18.5597 61.1675 16.5161 61.1675 13.7427C61.1675 10.9499 59.0207 8.92578 56.3861 8.92578C53.7515 8.92578 51.6047 10.9694 51.6047 13.7427C51.6047 16.5161 53.7515 18.5597 56.3861 18.5597ZM56.3861 10.8239C57.8302 10.8239 59.0745 12.0097 59.0745 13.7427C59.0745 15.4562 57.8302 16.6616 56.3861 16.6616C54.942 16.6616 53.6978 15.4758 53.6978 13.7427C53.6978 12.0097 54.942 10.8239 56.3861 10.8239ZM71.0526 9.21897V17.8647C71.0526 21.4221 68.9767 22.875 66.5226 22.875C64.2125 22.875 62.8221 21.3135 62.2978 20.0365L64.1201 19.2698C64.4446 20.0539 65.2397 20.979 66.5205 20.979C68.0913 20.979 69.0648 19.9996 69.0648 18.1557V17.4629H68.9917C68.5233 18.0472 67.6207 18.5575 66.4818 18.5575C64.0986 18.5575 61.9153 16.4596 61.9153 13.7601C61.9153 11.0606 64.0986 8.92578 66.4818 8.92578C67.6186 8.92578 68.5211 9.43614 68.9917 10.003H69.0648V9.21897H71.0526ZM69.2131 13.7601C69.2131 12.064 68.0935 10.8239 66.6687 10.8239C65.244 10.8239 64.0148 12.064 64.0148 13.7601C64.0148 15.4562 65.2247 16.6616 66.6687 16.6616C68.1128 16.6616 69.2131 15.4389 69.2131 13.7601ZM82.2852 15.3283L83.9098 16.4229C83.3855 17.2069 82.1219 18.5577 79.9386 18.5577C77.2309 18.5577 75.2087 16.4424 75.2087 13.7408C75.2087 10.8762 77.2481 8.92383 79.7043 8.92383C82.1606 8.92383 83.3876 10.9132 83.783 11.9882L84.0001 12.5355L77.6284 15.2024C78.1163 16.1688 78.8748 16.6618 79.9386 16.6618C81.0023 16.6618 81.7437 16.1319 82.2852 15.3283ZM77.2846 13.5953L81.5438 11.8079C81.3096 11.2063 80.6047 10.7872 79.7752 10.7872C78.7115 10.7872 77.2309 11.7362 77.2846 13.5953ZM28.6303 24.2214C28.2844 24.1215 28.0329 23.9977 27.8761 23.8522C27.7192 23.7067 27.6397 23.5264 27.6397 23.3114C27.6397 23.0682 27.7364 22.8684 27.9276 22.7076C28.1189 22.5491 28.3703 22.4688 28.6776 22.4688C28.8882 22.4688 29.0752 22.51 29.2385 22.5925C29.4018 22.6751 29.5307 22.788 29.621 22.9313C29.7113 23.0747 29.7564 23.2332 29.7564 23.4048H29.3524C29.3524 23.218 29.2944 23.0703 29.1762 22.9639C29.058 22.8575 28.8925 22.8032 28.6798 22.8032C28.4821 22.8032 28.3273 22.8466 28.2156 22.9357C28.1038 23.0247 28.048 23.1463 28.048 23.3049C28.048 23.4308 28.1017 23.5373 28.207 23.6241C28.3123 23.711 28.4928 23.7913 28.7464 23.863C29 23.9347 29.1977 24.015 29.3416 24.1019C29.4856 24.1888 29.5909 24.2909 29.6597 24.406C29.7284 24.5211 29.7628 24.6579 29.7628 24.8142C29.7628 25.064 29.6661 25.2638 29.4727 25.4158C29.2793 25.5657 29.0214 25.6417 28.6991 25.6417C28.4885 25.6417 28.293 25.6004 28.1124 25.5201C27.9319 25.4397 27.7901 25.3268 27.6912 25.1856C27.5924 25.0445 27.543 24.8837 27.543 24.7035H27.947C27.947 24.8903 28.0157 25.0379 28.1511 25.1465C28.2865 25.2551 28.4692 25.3094 28.6969 25.3094C28.9097 25.3094 29.073 25.266 29.1848 25.1769C29.2987 25.0901 29.3545 24.9706 29.3545 24.8186C29.3545 24.6666 29.303 24.5515 29.1977 24.4668C29.0924 24.3842 28.9032 24.3017 28.6282 24.2214H28.6303ZM30.6868 24.7884H31.9655H31.9676L32.2599 25.5963H32.6725L31.5034 22.5103H31.151L29.9841 25.5963H30.3989L30.6868 24.7884ZM31.8451 24.4561H30.8072L31.3251 23.0119L31.8451 24.4561ZM34.7656 24.2325H33.4849V25.5963H33.083V22.5103H34.9741V22.8425H33.4849V23.9002H34.7656V24.2325ZM35.8573 24.1695H37.1788V23.8372H35.8551V22.8425H37.3723V22.5103H35.4532V25.5963H37.3937V25.264H35.8573V24.1695ZM38.9603 25.5963V22.5103H39.9596C40.2905 22.5103 40.5398 22.5798 40.7074 22.7187C40.875 22.8577 40.9588 23.0619 40.9588 23.3333C40.9588 23.4767 40.918 23.6048 40.8364 23.7156C40.7547 23.8263 40.6451 23.9132 40.5054 23.974C40.6709 24.0196 40.802 24.1087 40.8965 24.239C40.9932 24.3693 41.0405 24.5256 41.0405 24.7059C41.0405 24.9839 40.9524 25.2011 40.774 25.3596C40.5957 25.5181 40.3442 25.5963 40.0219 25.5963H38.9625H38.9603ZM39.3643 23.8263H39.9703C40.1465 23.8263 40.2862 23.7807 40.3937 23.6917C40.499 23.6026 40.5527 23.481 40.5527 23.329C40.5527 23.1596 40.5033 23.0358 40.4066 22.9576C40.3077 22.8795 40.1594 22.8425 39.9596 22.8425H39.3643V23.8263ZM39.3622 24.1521V25.2619H40.0262C40.2132 25.2619 40.3614 25.2119 40.4689 25.1142C40.5763 25.0165 40.6322 24.8796 40.6322 24.7081C40.6322 24.3367 40.4324 24.1499 40.0326 24.1499H39.3622V24.1521ZM42.0355 24.3476H42.7532V24.3454L43.4151 25.5941H43.847V25.5681L43.1293 24.2585C43.3141 24.189 43.4559 24.0826 43.5591 23.9393C43.6622 23.7981 43.7138 23.6309 43.7138 23.4376C43.7138 23.1357 43.6214 22.9055 43.4366 22.747C43.2518 22.5884 42.9875 22.5103 42.6436 22.5103H41.6315V25.5963H42.0355V24.3476ZM42.6544 24.0153H42.0355V22.8447H42.6522C42.865 22.8447 43.0283 22.8968 43.14 22.9989C43.2539 23.101 43.3098 23.2465 43.3098 23.4376C43.3098 23.6135 43.2496 23.7547 43.1314 23.8589C43.0132 23.9632 42.8542 24.0153 42.6544 24.0153ZM46.6277 24.1521C46.6277 24.454 46.5783 24.7189 46.4773 24.9448C46.3763 25.1706 46.2344 25.3422 46.0496 25.4616C45.8648 25.5811 45.6499 25.6397 45.4028 25.6397C45.1557 25.6397 44.9494 25.5789 44.7624 25.4595C44.5755 25.34 44.4315 25.1706 44.3283 24.9491C44.2252 24.7276 44.1736 24.4713 44.1693 24.1803V23.9566C44.1693 23.6591 44.2209 23.3985 44.3219 23.1704C44.4229 22.9424 44.569 22.7687 44.756 22.6471C44.9429 22.5254 45.1557 22.4668 45.3964 22.4668C45.637 22.4668 45.8562 22.5254 46.0432 22.6449C46.2301 22.7643 46.3741 22.9381 46.4751 23.1639C46.5761 23.3898 46.6256 23.6547 46.6256 23.9566V24.1521H46.6277ZM46.228 23.9545C46.228 23.5874 46.1549 23.3073 46.011 23.1118C45.867 22.9164 45.6628 22.8186 45.4007 22.8186C45.1385 22.8186 44.9451 22.9164 44.799 23.1118C44.6528 23.3073 44.5776 23.5787 44.5733 23.9262V24.1521C44.5733 24.5061 44.6464 24.7862 44.7947 24.9882C44.9429 25.1902 45.1449 25.2922 45.4028 25.2922C45.6607 25.2922 45.8648 25.1967 46.0067 25.0056C46.1485 24.8145 46.2216 24.5387 46.2258 24.1825V23.9545H46.228ZM47.9494 25.0292L47.8914 24.6231H47.8849L47.4036 22.51H47.0017L47.7409 25.596H48.1084L48.7617 23.3461L48.809 23.1116L48.8562 23.3461L49.4859 25.596H49.8534L50.5947 22.51H50.1907L49.7158 24.6209L49.6514 25.0357L49.5675 24.6622L48.9787 22.5078H48.6392L48.0354 24.6622L47.9494 25.0292ZM51.9421 24.2214C51.5961 24.1215 51.3447 23.9977 51.1878 23.8522C51.0309 23.7067 50.9514 23.5264 50.9514 23.3114C50.9514 23.0682 51.0481 22.8684 51.2394 22.7076C51.4307 22.5491 51.6821 22.4688 51.9894 22.4688C52.2 22.4688 52.3869 22.51 52.5503 22.5925C52.7136 22.6751 52.8425 22.788 52.9328 22.9313C53.023 23.0747 53.0681 23.2332 53.0681 23.4048H52.6642C52.6642 23.218 52.6061 23.0703 52.4879 22.9639C52.3697 22.8575 52.2043 22.8032 51.9915 22.8032C51.7938 22.8032 51.6391 22.8466 51.5274 22.9357C51.4156 23.0247 51.3597 23.1463 51.3597 23.3049C51.3597 23.4308 51.4135 23.5373 51.5188 23.6241C51.6241 23.711 51.8046 23.7913 52.0581 23.863C52.3117 23.9347 52.5094 24.015 52.6534 24.1019C52.7974 24.1888 52.9027 24.2909 52.9714 24.406C53.0402 24.5211 53.0746 24.6579 53.0746 24.8142C53.0746 25.064 52.9779 25.2638 52.7845 25.4158C52.5911 25.5657 52.3332 25.6417 52.0109 25.6417C51.8003 25.6417 51.6047 25.6004 51.4242 25.5201C51.2437 25.4397 51.1019 25.3268 51.003 25.1856C50.9042 25.0445 50.8547 24.8837 50.8547 24.7035H51.2587C51.2587 24.8903 51.3275 25.0379 51.4629 25.1465C51.5983 25.2551 51.7809 25.3094 52.0087 25.3094C52.2215 25.3094 52.3848 25.266 52.4965 25.1769C52.6104 25.0901 52.6663 24.9706 52.6663 24.8186C52.6663 24.6666 52.6147 24.5515 52.5094 24.4668C52.4041 24.3842 52.215 24.3017 51.94 24.2214H51.9421ZM53.6226 25.5963H54.0244V22.5103H53.6226V25.5963ZM57.106 25.5963H56.702L55.1655 23.2182V25.5963H54.7615V22.5103H55.1655L56.7063 24.8992V22.5103H57.106V25.5963ZM59.6439 25.5292C59.8287 25.4554 59.9726 25.3424 60.0758 25.1926L60.0779 25.1882V24.0567H58.9712V24.389H59.6782V25.0796C59.603 25.16 59.5106 25.2165 59.3967 25.2512C59.285 25.2838 59.1518 25.3012 59.0013 25.3012C58.7327 25.3012 58.5221 25.1991 58.3652 24.9949C58.2084 24.7908 58.131 24.5172 58.131 24.1697V23.9177C58.1332 23.5551 58.2019 23.2771 58.3416 23.086C58.4791 22.8949 58.6833 22.7993 58.954 22.7993C59.3602 22.7993 59.6009 23.0034 59.6761 23.4139H60.0779C60.035 23.1099 59.9146 22.8775 59.7212 22.7124C59.5278 22.5474 59.2699 22.4648 58.9519 22.4648C58.5629 22.4648 58.2621 22.593 58.0472 22.8492C57.8323 23.1055 57.7249 23.466 57.7249 23.9308V24.2001C57.7292 24.4889 57.7829 24.7408 57.8882 24.958C57.9935 25.1752 58.1417 25.3446 58.3352 25.4619C58.5264 25.5813 58.7521 25.6399 58.997 25.6399C59.242 25.6399 59.459 25.603 59.6439 25.5292ZM0 4.85211V7.11626C0 15.1055 0 20.6203 4.60916 25.278C6.37197 27.0731 10.7062 30.0004 10.7062 30.0004C10.7062 30.0004 15.0566 27.0731 16.8194 25.278C21.4124 20.6365 21.4124 15.7686 21.4124 8.26451V4.85211H0ZM10.7062 25.5853C10.7062 25.5853 9.55795 24.4855 8.55526 23.3696C9.15364 22.8521 9.92992 22.5287 10.7871 22.5287C11.5795 22.5287 12.3073 22.8036 12.9057 23.2726C11.8868 24.4208 10.7062 25.5853 10.7062 25.5853ZM13.8922 22.0758C13.8922 22.0758 13.779 22.2214 13.7143 22.3022C12.9057 21.6715 11.903 21.2672 10.7871 21.2672C9.62264 21.2672 8.55526 21.7039 7.73046 22.3993C7.69003 22.3427 7.64556 22.2861 7.60109 22.2295L7.60107 22.2295L7.60104 22.2294C7.55658 22.1728 7.51212 22.1162 7.4717 22.0597C7.32615 21.8494 7.18059 21.623 7.05121 21.3966C8.07008 20.5718 9.38005 20.0704 10.7871 20.0704C12.1941 20.0704 13.3747 20.5233 14.3774 21.2834C14.3235 21.3696 14.2713 21.4577 14.2192 21.5457L14.2192 21.5458C14.115 21.7218 14.0108 21.8979 13.8922 22.0597V22.0758ZM10.6253 8.31303C12.5822 8.31303 14.1509 9.9141 14.1509 11.8872C14.1509 13.8602 12.566 15.4613 10.6253 15.4613C8.68464 15.4613 7.09973 13.8602 7.09973 11.8872C7.09973 9.9141 8.68464 8.31303 10.6253 8.31303ZM10.7871 17.499C12.5013 17.499 14.0863 18.0165 15.4286 18.8898C15.2992 19.3103 15.1536 19.7146 14.9919 20.0866C13.8113 19.2456 12.3558 18.7443 10.7871 18.7281C9.15364 18.7281 7.63342 19.278 6.42049 20.1998C6.24259 19.8117 6.09704 19.4235 5.95148 19.0031C7.32615 18.0489 8.99191 17.4828 10.7871 17.4828V17.499Z" fill="#171716"/>
</svg>
