<svg width="42" height="32" viewBox="0 0 42 32" fill="none" xmlns="http://www.w3.org/2000/svg">
<g clip-path="url(#clip0_83_706)">
<path d="M22.3338 2.75049L22.3145 2.76986L22.3338 2.75049Z" fill="#E7D158"/>
<path d="M1.64649 7.05085L14.586 1.33656C14.8378 1.22034 15.1283 1.16223 15.3995 1.16223C15.6707 1.16223 15.9613 1.22034 16.2131 1.33656L19.4286 2.75061L20.862 2.11138L16.678 0.271186C16.2712 0.0968523 15.8257 0 15.3801 0C14.9346 0 14.4891 0.0968523 14.0823 0.271186L0.503632 6.2954C0.193705 6.43099 0 6.72155 0 7.07022C0 7.41889 0.193705 7.70944 0.503632 7.84504L4.2615 9.5109L5.69492 8.87167L1.64649 7.08959V7.05085Z" fill="#E7D158"/>
<path d="M19.4666 2.76986L19.4473 2.75049V2.76986H19.4666Z" fill="#E7D158"/>
<path d="M22.3336 2.75061L25.5491 1.33656C25.801 1.22034 26.0915 1.16223 26.3627 1.16223C26.6339 1.16223 26.9244 1.22034 27.1763 1.33656L40.1157 7.05085L36.0673 8.83293L37.5007 9.47215L41.2586 7.8063C41.5685 7.6707 41.7622 7.38015 41.7622 7.03148C41.7622 6.68281 41.5685 6.39225 41.2586 6.25666L27.6605 0.271186C27.2537 0.0968523 26.8082 0 26.3627 0C25.9172 0 25.4717 0.0968523 25.0649 0.271186L20.8809 2.11138L22.3143 2.75061H22.3336Z" fill="#E7D158"/>
<path d="M41.2779 11.138L37.52 9.47217L36.0866 10.1114L40.1351 11.8935L35.6992 13.8499V15.1283L41.2779 12.6683C41.5878 12.5327 41.7815 12.2421 41.7815 11.8935C41.7815 11.5448 41.5878 11.2543 41.2779 11.1187V11.138Z" fill="#E7D158"/>
<path d="M1.64649 11.8935L5.69492 10.1114L4.2615 9.47217L0.503632 11.138C0.193705 11.2736 0 11.5642 0 11.9128C0 12.2615 0.193705 12.5521 0.503632 12.6877L6.12107 15.1671V13.8886L1.64649 11.9128V11.8935Z" fill="#E7D158"/>
<path d="M21.4817 17.0848L21.0943 16.9105L20.9006 16.833L20.3389 17.0848V19.1187C20.5326 19.0994 20.7069 19.0606 20.9006 19.0606C21.1137 19.0606 21.3074 19.0994 21.5011 19.1187V17.0848H21.4817Z" fill="#E7D158"/>
<path d="M20.8811 20.2227C20.6874 20.2227 20.513 20.242 20.3193 20.2808V30.7796C20.513 30.7989 20.7067 30.8377 20.9005 30.8377C21.0942 30.8377 21.2879 30.7989 21.4816 30.7796V20.2808C21.2879 20.242 21.0748 20.2227 20.8811 20.2227Z" fill="#E7D158"/>
<path d="M21.482 17.0847L21.0752 16.9104L21.482 17.0847Z" fill="#E7D158"/>
<path d="M20.3193 15.8255L20.9005 15.5737L21.4816 15.8255L20.9005 15.5737L20.3193 15.8255Z" fill="#E7D158"/>
<path d="M21.0746 16.9105L20.8809 16.833L21.0746 16.9105Z" fill="#E7D158"/>
<path d="M27.3312 17.5496C27.0213 17.6852 26.7114 17.7433 26.3627 17.7433C26.014 17.7433 25.7041 17.6658 25.3942 17.5496L22.3143 16.1936L21.6557 16.4842L21.4813 16.5617L20.8809 16.8329L21.0746 16.9103L21.462 17.0847L24.9099 18.6149C25.3554 18.8086 25.8397 18.9249 26.3433 18.9249C26.847 18.9249 27.3312 18.828 27.7767 18.6149L34.5177 15.6513V14.3728L27.3119 17.5496H27.3312Z" fill="#E7D158"/>
<path d="M35.738 8.69738L22.3143 2.77002L21.4426 3.15743L21.0939 3.29302L21.0552 3.31239L20.8809 3.38987L21.4813 3.66106L34.6533 9.4722L35.5637 9.06542L36.0867 8.85234L35.738 8.69738Z" fill="#E7D158"/>
<path d="M20.3194 16.581L20.1257 16.5035L19.4477 16.2129H19.409L16.3678 17.5688C16.0579 17.7044 15.7479 17.7626 15.3993 17.7626C15.0506 17.7626 14.7407 17.6851 14.4307 17.5688L7.26367 14.3921V15.6705L13.9659 18.6342C14.4114 18.8279 14.8956 18.9441 15.3993 18.9441C15.9029 18.9441 16.3872 18.8473 16.8327 18.6342L20.3 17.104L20.8617 16.8521L20.3 16.6003L20.3194 16.581Z" fill="#E7D158"/>
<path d="M20.6871 3.29302L20.3384 3.15743L19.4667 2.77002H19.4474L6.043 8.69738L5.69434 8.83297L6.21734 9.06542L7.12775 9.4722L20.319 3.66106L20.8808 3.38987L20.6871 3.29302Z" fill="#E7D158"/>
<path opacity="0.57" d="M6.12093 10.3049H6.10156V13.8691L7.26379 14.3921V10.8086L6.12093 10.3049Z" fill="#E7D158"/>
<path d="M34.5371 24.2325C34.5371 24.3875 34.5177 24.5231 34.479 24.6587L35.002 24.8911L34.5371 25.9565L33.6848 25.5885L22.5661 30.5086C22.2368 30.6635 21.8688 30.741 21.5201 30.7991V31.4771H20.3579V30.7991C19.9899 30.741 19.6412 30.6635 19.3119 30.5086L8.19324 25.5885L7.34094 25.9565L6.87605 24.8911L7.39905 24.6587C7.36031 24.5231 7.34094 24.3875 7.34094 24.2325V15.6514L6.17871 15.1478V24.2325C6.17871 25.2785 6.79857 26.2277 7.74772 26.6538L18.8664 31.5739C19.525 31.8645 20.2417 32.0195 20.9584 32.0195C21.6751 32.0195 22.3918 31.8645 23.0504 31.5739L34.169 26.6538C35.1182 26.2277 35.738 25.2785 35.738 24.2325V15.1284L34.5758 15.632V24.2325H34.5371Z" fill="#E7D158"/>
<path opacity="0.57" d="M35.68 10.2856L34.5371 10.7893V14.3728L35.6993 13.8692V10.2856H35.68Z" fill="#E7D158"/>
<path d="M20.319 15.3027L7.12775 9.47217L5.69434 10.1114L6.12049 10.3051L7.26334 10.8087L19.4667 16.1937L20.319 15.8257L20.9001 15.5739L20.319 15.3027Z" fill="#E7D158"/>
<path d="M34.6534 9.47217L21.4815 15.3027L20.9004 15.5739L21.4815 15.8257L22.3144 16.1937L34.5372 10.7894L35.6801 10.2857L36.0868 10.1114L34.6534 9.47217Z" fill="#E7D158"/>
<path d="M20.3193 30.7795V31.4575H21.4816V30.7795C21.2879 30.7989 21.0942 30.8377 20.9005 30.8377C20.7067 30.8377 20.513 30.7989 20.3193 30.7795Z" fill="#E7D158"/>
<path opacity="0.57" d="M20.319 20.2809V19.1187C19.9122 19.1768 19.5248 19.2542 19.1568 19.4286L7.34082 24.6586C7.45704 25.0654 7.7476 25.3947 8.13501 25.569L19.6217 20.4746C19.8541 20.3777 20.0866 20.3196 20.319 20.2615V20.2809Z" fill="#E7D158"/>
<path opacity="0.57" d="M21.4814 19.1187V20.2809C21.6945 20.3196 21.9076 20.3971 22.1207 20.4746L33.6655 25.569C34.0529 25.3947 34.3434 25.046 34.4597 24.6586L22.5856 19.4286C22.2369 19.2736 21.8495 19.1768 21.4814 19.138V19.1187Z" fill="#E7D158"/>
<path d="M7.34136 24.6587L6.81836 24.8911L7.28325 25.9565L8.13555 25.5885C7.74814 25.4141 7.45758 25.0655 7.34136 24.6781V24.6587Z" fill="#E7D158"/>
<path d="M33.665 25.5689L34.5173 25.937L34.9822 24.8716L34.4592 24.6392C34.343 25.0459 34.0524 25.3752 33.665 25.5496V25.5689Z" fill="#E7D158"/>
<path opacity="0.57" d="M20.8811 3.38965L20.3193 3.64146V15.3025L20.9005 15.5737L21.4816 15.3025V3.66083L20.8811 3.38965Z" fill="#E7D158"/>
</g>
<defs>
<clipPath id="clip0_83_706">
<rect width="41.7821" height="32" fill="white"/>
</clipPath>
</defs>
</svg>
