<svg width="47" height="32" viewBox="0 0 47 32" fill="none" xmlns="http://www.w3.org/2000/svg">
<g clip-path="url(#clip0_83_639)">
<path opacity="0.57" d="M20.5873 0H3.42785C1.53245 0 0 1.53245 0 3.42785V23.9748C0 25.8702 1.53245 27.4026 3.42785 27.4026H6.75488C6.71456 27.1607 6.67423 26.9389 6.67423 26.6969C6.67423 26.5356 6.71456 26.3743 6.71456 26.1928H3.40769C2.19786 26.1928 1.18967 25.2048 1.18967 23.9748V3.42785C1.18967 2.21802 2.17769 1.20983 3.40769 1.20983H20.5671C21.7769 1.20983 22.7851 2.19786 22.7851 3.42785V23.9748C22.7851 25.1846 21.7971 26.1928 20.5671 26.1928H17.2602C17.2602 26.3541 17.3006 26.5154 17.3006 26.6969C17.3006 26.9389 17.2602 27.1808 17.2199 27.4026H20.5469C22.4423 27.4026 23.9748 25.8702 23.9748 23.9748V3.42785C23.9748 1.53245 22.4423 0 20.5469 0H20.5873Z" fill="#E7D158"/>
<path opacity="0.57" d="M7.88428 26.6767C7.88428 26.9187 7.9246 27.1606 7.96493 27.3824H16.0506C16.091 27.1405 16.1313 26.9187 16.1313 26.6767C16.1313 26.5154 16.1111 26.3541 16.091 26.1726H7.94477C7.94477 26.3339 7.90444 26.4952 7.90444 26.6767H7.88428Z" fill="#E7D158"/>
<path opacity="0.57" d="M11.9973 22.5633C14.0943 22.5633 15.8082 24.1563 16.0704 26.1928H17.2802C17.0181 23.4909 14.7799 21.3535 11.9973 21.3535C9.21467 21.3535 6.97649 23.4909 6.71436 26.1928H7.92419C8.16615 24.1563 9.90024 22.5633 11.9973 22.5633Z" fill="#E7D158"/>
<path d="M11.9976 30.7903C9.98124 30.7903 8.28748 29.3183 7.94469 27.3826H6.73486C7.07765 29.9837 9.29567 32.0001 11.9976 32.0001C14.6996 32.0001 16.8974 29.9837 17.2604 27.3826H16.0506C15.7078 29.3183 14.0342 30.7903 11.9976 30.7903Z" fill="#E7D158"/>
<path opacity="0.57" d="M30.6286 26.1726C30.8706 24.136 32.6047 22.5431 34.7017 22.5431C36.7988 22.5431 38.5127 24.136 38.7748 26.1726H39.9846C39.7225 23.4706 37.4843 21.3333 34.7017 21.3333C31.9191 21.3333 29.7616 23.39 29.439 26.0314C29.7011 26.1121 29.9632 26.1726 30.2455 26.1726H30.6286Z" fill="#E7D158"/>
<path d="M34.7017 30.7901C32.6853 30.7901 30.9916 29.3181 30.6488 27.3824H30.2455C29.9632 27.3824 29.7011 27.3622 29.439 27.3018C29.7616 29.9432 31.9796 31.9999 34.7017 31.9999C37.4238 31.9999 39.6015 29.9835 39.9645 27.3824H38.7547C38.4119 29.3181 36.7383 30.7901 34.7017 30.7901Z" fill="#E7D158"/>
<path opacity="0.57" d="M30.5884 26.6767C30.5884 26.9187 30.6287 27.1606 30.669 27.3824H38.7547C38.7951 27.1405 38.8354 26.9187 38.8354 26.6767C38.8354 26.5154 38.8152 26.3541 38.7951 26.1726H30.669C30.669 26.3339 30.6287 26.4952 30.6287 26.6767H30.5884Z" fill="#E7D158"/>
<path d="M45.4692 16.4335L38.9563 7.15814C38.311 6.2306 37.2222 5.66602 36.093 5.66602H29.7414C27.8057 5.66602 26.2329 7.23879 26.2329 9.17452V23.39C26.2329 25.3258 27.6041 26.9389 29.439 27.322C29.4188 27.1203 29.3785 26.8985 29.3785 26.6969C29.3785 26.4953 29.4188 26.2735 29.439 26.0718C28.2896 25.729 27.4427 24.6603 27.4427 23.4102V9.19469C27.4427 7.92436 28.4711 6.89601 29.7414 6.89601H36.093C36.8391 6.89601 37.5448 7.25896 37.9683 7.86387L44.4812 17.1392C44.7635 17.5223 44.9046 17.9861 44.9046 18.4499V23.8941C44.9046 25.1644 43.8763 26.1928 42.6059 26.1928H39.9846C39.9846 26.3541 40.025 26.5154 40.025 26.6969C40.025 26.9389 39.9846 27.1808 39.9443 27.4026H42.5858C44.5215 27.4026 46.0943 25.8298 46.0943 23.8941V18.4499C46.0943 17.724 45.8725 17.0384 45.449 16.4335H45.4692Z" fill="#E7D158"/>
</g>
<defs>
<clipPath id="clip0_83_639">
<rect width="46.0945" height="32" fill="white"/>
</clipPath>
</defs>
</svg>
