<svg width="41" height="32" viewBox="0 0 41 32" fill="none" xmlns="http://www.w3.org/2000/svg">
<g clip-path="url(#clip0_83_661)">
<path d="M12.4007 17.3813V12.4009H11.1909V17.3813C11.1909 19.2767 12.7234 20.8092 14.6188 20.8092H28.4713V19.5994H14.6188C13.4089 19.5994 12.4007 18.6113 12.4007 17.3813Z" fill="#E7D158"/>
<path d="M37.4442 0H14.6188C12.7234 0 11.1909 1.53245 11.1909 3.42785V11.2111H12.4007V3.42785C12.4007 2.21802 13.3888 1.20983 14.6188 1.20983H37.4442C38.6541 1.20983 39.6622 2.19786 39.6622 3.42785V17.3812C39.6622 18.5911 38.6742 19.5992 37.4442 19.5992H29.661V20.8091H37.4442C39.3396 20.8091 40.8721 19.2766 40.8721 17.3812V3.42785C40.8721 1.53245 39.3396 0 37.4442 0Z" fill="#E7D158"/>
<path opacity="0.57" d="M26.2534 12.4007C27.4633 12.4007 28.4715 13.3888 28.4715 14.6188V19.5992H29.6813V14.6188C29.6813 12.7234 28.1488 11.1909 26.2534 11.1909H12.4009V12.4007H26.2534Z" fill="#E7D158"/>
<path opacity="0.57" d="M28.4713 28.5721C28.4713 29.782 27.4833 30.7902 26.2533 30.7902H3.42785C2.21802 30.7902 1.20983 29.8021 1.20983 28.5721V14.6188C1.20983 13.4089 2.19786 12.4007 3.42785 12.4007H11.2111V11.1909H3.42785C1.53245 11.1909 0 12.7234 0 14.6188V28.5721C0 30.4675 1.53245 32 3.42785 32H26.2533C28.1487 32 29.6812 30.4675 29.6812 28.5721V20.7889H28.4713V28.5721Z" fill="#E7D158"/>
<path d="M37.4243 4.65796H14.6392V8.34794H37.4243V4.65796Z" fill="#E7D158"/>
<path d="M22.0191 16.1714H14.6392V17.3812H22.0191V16.1714Z" fill="#E7D158"/>
</g>
<defs>
<clipPath id="clip0_83_661">
<rect width="40.8721" height="32" fill="white"/>
</clipPath>
</defs>
</svg>
