<svg width="33" height="32" viewBox="0 0 33 32" fill="none" xmlns="http://www.w3.org/2000/svg">
<g clip-path="url(#clip0_83_679)">
<path d="M13.6191 13.3771V7.06182C13.4577 7.02147 13.2963 6.96094 13.1147 6.96094H12.4085V13.3771H8.95833C7.06174 13.3771 5.52832 14.9105 5.52832 16.8071V21.0845H6.73891V16.8071C6.73891 15.5965 7.72756 14.5877 8.95833 14.5877H15.3341V13.3771H13.6191Z" fill="#E7D158"/>
<path d="M28.7919 13.3771H25.3417V6.47667C25.3417 2.90542 22.4363 0 18.865 0C15.5561 0 12.8322 2.52207 12.4691 5.75032H13.1147C13.3165 5.75032 13.4981 5.77049 13.6796 5.81085C14.0025 3.22825 16.2017 1.23077 18.865 1.23077C21.7704 1.23077 24.1311 3.59143 24.1311 6.49685V13.3972H16.5447V14.6078H28.7919C30.0025 14.6078 31.0113 15.5965 31.0113 16.8272V28.6103C31.0113 29.8209 30.0226 30.8298 28.7919 30.8298H8.95833C7.74774 30.8298 6.73891 29.8411 6.73891 28.6103V22.3153H5.52832V28.6103C5.52832 30.5069 7.06174 32.0404 8.95833 32.0404H28.7919C30.6885 32.0404 32.2219 30.5069 32.2219 28.6103V16.8272C32.2219 14.9306 30.6885 13.3972 28.7919 13.3972V13.3771Z" fill="#E7D158"/>
<path d="M19.4704 20.5598H18.2598V24.8171H19.4704V20.5598Z" fill="#E7D158"/>
<path opacity="0.57" d="M13.6797 5.79077C13.6595 6.01271 13.6191 6.23466 13.6191 6.4566V7.04172C14.5876 7.26366 15.3341 8.11107 15.3341 9.16025V13.357H16.5447V9.16025C16.5447 7.46543 15.314 6.07324 13.6797 5.79077Z" fill="#E7D158"/>
<path opacity="0.57" d="M15.3345 18.8651C15.3345 20.0757 14.3458 21.0845 13.115 21.0845H6.73926V22.2951H13.115C15.0116 22.2951 16.5451 20.7617 16.5451 18.8651V14.5876H15.3345V18.8651Z" fill="#E7D158"/>
<path opacity="0.57" d="M3.43001 21.0644C2.21942 21.0644 1.21059 20.0757 1.21059 18.845V9.16024C1.21059 7.94964 2.19924 6.94082 3.43001 6.94082H12.4086V6.45658C12.4086 6.21446 12.4489 5.97234 12.4893 5.73022H3.43001C1.53342 5.73022 0 7.26364 0 9.16024V18.845C0 20.7416 1.53342 22.275 3.43001 22.275H5.54855V21.0644H3.43001Z" fill="#E7D158"/>
</g>
<defs>
<clipPath id="clip0_83_679">
<rect width="32.2018" height="32" fill="white"/>
</clipPath>
</defs>
</svg>
