<svg width="15" height="15" viewBox="0 0 15 15" fill="none" xmlns="http://www.w3.org/2000/svg">
<path fill-rule="evenodd" clip-rule="evenodd" d="M11.0031 5.92085C11.0031 3.11977 8.72194 0.838648 5.92085 0.838648C3.11977 0.838648 0.838648 3.11977 0.838648 5.92085C0.838648 8.72194 3.11977 11.0031 5.92085 11.0031C8.72194 11.0031 11.0031 8.72194 11.0031 5.92085ZM0 5.92085C0 2.65013 2.65013 0 5.92085 0C9.19158 0 11.8417 2.65013 11.8417 5.92085C11.8417 7.48886 11.2326 8.91423 10.2381 9.97335L10.4593 9.75214L14.0571 13.3499L13.35 14.057L9.75219 10.4592L9.97335 10.2381C8.91423 11.2326 7.48886 11.8417 5.92085 11.8417C2.65013 11.8417 0 9.19158 0 5.92085Z" fill="#E7D158"/>
</svg>
