<svg width="14" height="16" viewBox="0 0 14 16" fill="none" xmlns="http://www.w3.org/2000/svg">
<path d="M7.35372 0.0135007C8.23247 0 9.10618 0.00800043 9.97889 0C10.0318 1.02055 10.4014 2.06011 11.1538 2.78165C11.9046 3.52119 12.9666 3.85971 14 3.97421V6.65886C13.0316 6.62735 12.0587 6.42734 11.1799 6.01332C10.7972 5.84131 10.4407 5.6198 10.0917 5.39329C10.0872 7.34139 10.0998 9.287 10.0791 11.2271C10.0267 12.1591 9.71703 13.0867 9.17115 13.8547C8.2929 15.1333 6.76855 15.9669 5.20292 15.9929C4.24258 16.0474 3.28326 15.7873 2.46494 15.3083C1.10879 14.5143 0.1545 13.0607 0.0155108 11.5006C-0.00199629 11.1702 -0.00468474 10.8392 0.00745351 10.5086C0.128313 9.23999 0.76031 8.02643 1.74129 7.20088C2.8532 6.23933 4.41078 5.78131 5.86915 6.05232C5.88275 7.03988 5.84297 8.02643 5.84297 9.01398C5.17673 8.79997 4.39819 8.85997 3.81605 9.26149C3.39014 9.54009 3.06828 9.94999 2.90003 10.4281C2.76104 10.7661 2.80083 11.1416 2.80888 11.5006C2.96852 12.5947 4.02806 13.5142 5.1591 13.4147C5.90894 13.4067 6.62755 12.9747 7.01833 12.3422C7.14473 12.1206 7.28624 11.8941 7.29379 11.6336C7.35976 10.4411 7.33357 9.25349 7.34163 8.06093C7.34717 5.37329 7.33357 2.69314 7.35422 0.0140007L7.35372 0.0135007Z" fill="#E7D158"/>
</svg>
