<svg width="15" height="18" viewBox="0 0 15 18" fill="none" xmlns="http://www.w3.org/2000/svg">
<path fill-rule="evenodd" clip-rule="evenodd" d="M10.6367 0.630005H14.1274C14.5416 0.630005 14.8774 0.965791 14.8774 1.38C14.8774 1.79422 14.5416 2.13 14.1274 2.13H0.75C0.335786 2.13 0 1.79422 0 1.38C0 0.965791 0.335786 0.630005 0.75 0.630005H4.24069C4.29813 0.272831 4.60778 0 4.98115 0H9.89623C10.2696 0 10.5792 0.272831 10.6367 0.630005ZM1.93201 3.2616C2.34534 3.23462 2.70229 3.54782 2.72927 3.96115L3.54068 16.39H11.3359L12.1386 3.96167C12.1653 3.54832 12.522 3.23487 12.9354 3.26157C13.3488 3.28827 13.6622 3.645 13.6355 4.05835L12.7874 17.1884C12.762 17.583 12.4344 17.89 12.039 17.89H2.83804C2.4428 17.89 2.11538 17.5833 2.08963 17.1889L1.23246 4.05887C1.20547 3.64553 1.51867 3.28859 1.93201 3.2616ZM5.53625 3.26055C5.95016 3.24486 6.29843 3.56768 6.31412 3.9816L6.7061 14.3216C6.72179 14.7355 6.39896 15.0838 5.98505 15.0995C5.57113 15.1152 5.22287 14.7923 5.20717 14.3784L4.8152 4.03842C4.79951 3.6245 5.12233 3.27624 5.53625 3.26055ZM10.0618 4.03908C10.0778 3.62518 9.75529 3.27663 9.34139 3.26057C8.92749 3.24452 8.57894 3.56704 8.56288 3.98094L8.16179 14.3209C8.14573 14.7348 8.46825 15.0834 8.88215 15.0994C9.29605 15.1155 9.6446 14.793 9.66066 14.3791L10.0618 4.03908Z" fill="#1C1B18" fill-opacity="0.25"/>
</svg>
