<svg width="13" height="14" viewBox="0 0 13 14" fill="none" xmlns="http://www.w3.org/2000/svg">
<path fill-rule="evenodd" clip-rule="evenodd" d="M7.79371 2.58383C7.79371 1.62967 7.01687 0.84439 6.05427 0.84439C5.1001 0.84439 4.31482 1.62123 4.31482 2.58383V4.28106C4.31482 5.23522 5.1001 6.0205 6.05427 6.0205C7.00843 6.0205 7.79371 5.24366 7.79371 4.28106V2.58383ZM3.47043 2.58383C3.47043 1.15681 4.62725 0 6.05427 0C7.48128 0 8.6381 1.15681 8.6381 2.58383V4.28106C8.6381 5.70808 7.48128 6.86489 6.05427 6.86489C4.62725 6.86489 3.47043 5.70808 3.47043 4.28106V2.58383ZM11.2642 11.7877C11.2642 10.0398 9.83714 8.61279 8.08926 8.61279H4.0193C2.27141 8.61279 0.84439 10.0398 0.84439 11.7877V12.8516C0.84439 13.0205 0.979493 13.1556 1.14837 13.1556H10.9602C11.1291 13.1556 11.2642 13.0205 11.2642 12.8516V11.7877ZM4.0193 7.7684H8.08081C10.3016 7.7684 12.1001 9.56695 12.1001 11.7877V12.8516C12.1001 13.4849 11.585 14 10.9517 14H1.14837C0.515078 14 0 13.4849 0 12.8516V11.7877C0 9.56695 1.79855 7.7684 4.0193 7.7684Z" fill="#E7D158"/>
</svg>
