<svg width="16" height="16" viewBox="0 0 16 16" fill="none" xmlns="http://www.w3.org/2000/svg">
<path d="M7.97585 2.03504e-06C10.0205 0.0121802 11.9818 0.813789 13.4495 2.23731C14.9171 3.66083 15.7781 5.59639 15.8528 7.63965C15.8916 8.68573 15.7222 9.72943 15.3557 10.71C14.9892 11.6904 14.4325 12.5885 13.7171 13.3525C13.0016 14.1166 12.1421 14.732 11.1878 15.1621C10.2334 15.5922 9.20292 15.8285 8.15652 15.8584H7.92996C6.74044 15.8587 5.56578 15.592 4.49343 15.0772L0.343041 16H0.331322C0.32264 15.9999 0.313825 15.9978 0.305932 15.9941C0.298208 15.9906 0.291056 15.9859 0.285424 15.9795C0.279717 15.9729 0.27523 15.9644 0.272728 15.9561C0.270326 15.9479 0.269654 15.9391 0.270775 15.9307L0.971947 11.7344C0.311619 10.5262 -0.0231513 9.16671 0.00124406 7.79004C0.0256864 6.41344 0.408841 5.06681 1.1116 3.88281C1.81439 2.69886 2.81328 1.71788 4.01003 1.03711C5.20677 0.356437 6.56002 -0.000984097 7.93679 2.03504e-06H7.97585ZM7.74929 1.37793C6.61099 1.4103 5.50041 1.73915 4.52761 2.33106C3.55481 2.92299 2.75237 3.75785 2.20046 4.75391C1.64856 5.74999 1.3662 6.87305 1.38015 8.01172C1.3941 9.15043 1.70441 10.2658 2.28054 11.248L2.40066 11.4522L1.88113 14.2998L4.69656 13.6348L4.90847 13.7461C5.84217 14.2292 6.87869 14.4808 7.92996 14.4795H8.11745L8.12429 14.4814C9.8421 14.4278 11.47 13.7015 12.6575 12.459C13.8448 11.2165 14.4971 9.55733 14.4729 7.83887C14.4486 6.12054 13.7495 4.48087 12.5276 3.27246C11.3057 2.06406 9.65827 1.38311 7.93972 1.37793H7.74929ZM5.18972 4.09863C5.32229 4.10265 5.45487 4.10721 5.57058 4.11524C5.71133 4.12569 5.87299 4.13674 6.00808 4.47852C6.17447 4.87809 6.52874 5.8734 6.57644 5.97559C6.6062 6.02867 6.62231 6.08856 6.62331 6.14942C6.62433 6.21032 6.60938 6.27112 6.58132 6.3252C6.52711 6.44158 6.45672 6.54975 6.37234 6.64649C6.26944 6.7599 6.16247 6.89143 6.06277 6.98633C5.96319 7.08107 5.85428 7.1855 5.96316 7.3877C6.24614 7.90977 6.60469 8.38784 7.02761 8.80469C7.48014 9.24778 8.01206 9.60199 8.59499 9.84961C8.66246 9.88492 8.73769 9.90485 8.81374 9.90821C8.8549 9.90741 8.89561 9.89825 8.93288 9.88086C8.97023 9.86337 9.00353 9.83776 9.03054 9.80664C9.15466 9.68085 9.52316 9.24604 9.68386 9.0459C9.70891 9.00488 9.74414 8.97092 9.78542 8.94629C9.82666 8.92166 9.87323 8.90686 9.92117 8.9043C9.99498 8.90974 10.0679 8.92871 10.135 8.95996C10.3166 9.03268 11.2787 9.5475 11.4749 9.65039C11.6708 9.75314 11.8005 9.81129 11.8479 9.8916C11.8954 9.97203 11.8836 10.374 11.7034 10.834C11.5232 11.294 10.6972 11.7168 10.3313 11.7393C10.2229 11.7457 10.1191 11.7607 9.98171 11.7607C9.648 11.7607 9.13321 11.6738 7.95925 11.168C5.96165 10.3099 4.74929 8.19351 4.65359 8.05762C4.55761 7.92133 3.87311 6.9528 3.90359 5.97363C3.93414 4.99442 4.46251 4.52789 4.65163 4.33399C4.71853 4.26236 4.79943 4.20496 4.88894 4.16504C4.93365 4.1451 4.98007 4.12976 5.02761 4.11914L5.17312 4.09863H5.18972Z" fill="#25D366"/>
</svg>
