<svg width="59" height="26" viewBox="0 0 59 26" fill="none" xmlns="http://www.w3.org/2000/svg">
<path fill-rule="evenodd" clip-rule="evenodd" d="M7.64304 6.96027V9.03532H12.5641C12.4131 10.181 12.0302 11.0199 11.4482 11.6071C10.7305 12.3311 9.61015 13.128 7.64304 13.128C4.61033 13.128 2.23843 10.6623 2.23843 7.60265C2.23843 4.54305 4.61033 2.07726 7.64304 2.07726C9.27974 2.07726 10.4744 2.72627 11.3563 3.56071L12.8092 2.09492C11.5794 0.909492 9.94274 0 7.64523 0C3.49221 0 0 3.4128 0 7.60265C0 11.7925 3.49221 15.2053 7.64523 15.2053C9.88585 15.2053 11.5773 14.4636 12.9011 13.0728C14.2621 11.6998 14.6844 9.77263 14.6844 8.21413C14.6844 7.75055 14.6493 7.3223 14.5815 6.96027H7.64304ZM49.1535 14.9074V0.558594H47.0748V14.9074H49.1535ZM20.38 15.2075C23.0626 15.2075 25.2485 13.1303 25.2485 10.3113C25.2485 7.47243 23.0626 5.41504 20.38 5.41504C17.6974 5.41504 15.5115 7.4923 15.5115 10.3113C15.5115 13.1303 17.6974 15.2075 20.38 15.2075ZM20.38 7.3444C21.8504 7.3444 23.1173 8.5497 23.1173 10.3113C23.1173 12.053 21.8504 13.2782 20.38 13.2782C18.9096 13.2782 17.6427 12.0729 17.6427 10.3113C17.6427 8.5497 18.9096 7.3444 20.38 7.3444ZM30.8829 15.2075C33.5655 15.2075 35.7515 13.1303 35.7515 10.3113C35.7515 7.47243 33.5655 5.41504 30.8829 5.41504C28.2003 5.41504 26.0144 7.4923 26.0144 10.3113C26.0144 13.1303 28.2003 15.2075 30.8829 15.2075ZM30.8829 7.3444C32.3533 7.3444 33.6202 8.5497 33.6202 10.3113C33.6202 12.053 32.3533 13.2782 30.8829 13.2782C29.4125 13.2782 28.1456 12.0729 28.1456 10.3113C28.1456 8.5497 29.4125 7.3444 30.8829 7.3444ZM45.8166 5.71305V14.5011C45.8166 18.117 43.7029 19.5938 41.2041 19.5938C38.8519 19.5938 37.4362 18.0067 36.9023 16.7086L38.7578 15.9294C39.0882 16.7263 39.8978 17.6667 41.2019 17.6667C42.8014 17.6667 43.7926 16.6711 43.7926 14.7969V14.0927H43.7182C43.2412 14.6866 42.3222 15.2053 41.1625 15.2053C38.7359 15.2053 36.5128 13.0729 36.5128 10.3289C36.5128 7.58502 38.7359 5.41504 41.1625 5.41504C42.32 5.41504 43.239 5.9338 43.7182 6.50996H43.7926V5.71305H45.8166ZM43.9436 10.3289C43.9436 8.60488 42.8036 7.3444 41.3529 7.3444C39.9022 7.3444 38.6506 8.60488 38.6506 10.3289C38.6506 12.053 39.8825 13.2782 41.3529 13.2782C42.8233 13.2782 43.9436 12.0353 43.9436 10.3289ZM57.2539 11.9225L58.9081 13.0351C58.3742 13.832 57.0876 15.2051 54.8645 15.2051C52.1075 15.2051 50.0485 13.055 50.0485 10.3088C50.0485 7.39715 52.125 5.4126 54.626 5.4126C57.127 5.4126 58.3764 7.43467 58.779 8.52739L59 9.08368L52.5123 11.7945C53.009 12.7768 53.7814 13.2779 54.8645 13.2779C55.9476 13.2779 56.7025 12.7393 57.2539 11.9225ZM52.1622 10.1609L56.499 8.34416C56.2605 7.73269 55.5428 7.30664 54.6982 7.30664C53.6151 7.30664 52.1075 8.27132 52.1622 10.1609ZM2.74823 24.3132H1.51632L1.23844 25.0902H0.838013L1.9627 22.1167H2.30185L3.42873 25.0902H3.03049L2.74823 24.3132ZM1.63667 23.9931H2.63663L2.13556 22.6024L1.63667 23.9931ZM5.4702 22.1191L4.62778 24.5717L3.78974 22.1191H3.36743L4.45929 25.0927H4.80283L5.89469 22.1191H5.4702ZM7.76117 24.3132H6.52926L6.25137 25.0902H5.85095L6.97564 22.1167H7.31479L8.44167 25.0902H8.04343L7.76117 24.3132ZM6.64961 23.9931H7.64957L7.1485 22.6024L6.64961 23.9931ZM10.6275 24.7726H9.23151V22.1191H8.83984V25.0927H10.6275V24.7726ZM11.4875 25.0927H11.098V22.1191H11.4875V25.0927ZM12.6275 24.3132H13.8594L14.1417 25.0902H14.5399L13.4131 22.1167H13.0739L11.9492 25.0902H12.3496L12.6275 24.3132ZM13.7478 23.9931H12.7479L13.2468 22.6024L13.7478 23.9931ZM17.0846 24.1497L17.0844 24.152H16.6929C16.6557 24.397 16.5792 24.5692 16.4632 24.6685C16.3472 24.7678 16.1831 24.8164 15.9665 24.8164C15.7258 24.8164 15.5398 24.7193 15.4063 24.5294C15.2707 24.3396 15.205 24.0813 15.205 23.759V23.4698C15.205 23.1277 15.2772 22.865 15.4173 22.6795C15.5595 22.4941 15.7542 22.4014 16.0015 22.4014C16.205 22.4014 16.3625 22.4544 16.4741 22.5603C16.5857 22.6663 16.6601 22.8385 16.6929 23.0769H17.0846C17.054 22.7634 16.9424 22.5206 16.7542 22.344C16.566 22.1674 16.3144 22.0791 16.0015 22.0791C15.7652 22.0791 15.5573 22.1343 15.3779 22.2469C15.1985 22.3595 15.0606 22.5206 14.9622 22.7303C14.8637 22.94 14.8156 23.1829 14.8156 23.4588V23.7458C14.8156 24.1674 14.9206 24.5052 15.1306 24.7568C15.3084 24.9721 15.5391 25.0953 15.8198 25.1264L15.7586 25.3815C15.8899 25.3948 15.9774 25.4146 16.0212 25.4433C16.065 25.472 16.0868 25.5162 16.0868 25.5758C16.0868 25.6398 16.0584 25.6906 15.9993 25.7259C15.9402 25.7612 15.8593 25.7789 15.7521 25.7789L15.7652 25.9974C15.9577 25.9974 16.1087 25.9599 16.2159 25.8826C16.3232 25.8054 16.3779 25.7016 16.3779 25.5692C16.3779 25.3705 16.275 25.2535 16.0693 25.216L16.0889 25.1299C16.3538 25.1104 16.5695 25.0261 16.7389 24.8782C16.9332 24.7064 17.0469 24.4643 17.0844 24.152H17.0846V24.1497ZM19.7345 24.4634C19.8329 24.247 19.8811 23.9932 19.8811 23.7018V23.5142C19.8811 23.225 19.8307 22.9711 19.7345 22.7526C19.6382 22.534 19.4981 22.3663 19.3187 22.2515C19.1393 22.1367 18.927 22.0793 18.6951 22.0793C18.4632 22.0793 18.2553 22.1367 18.0759 22.2537C17.8965 22.3707 17.7564 22.5384 17.6579 22.757C17.5573 22.9755 17.5092 23.2272 17.5092 23.5142V23.7283C17.5113 24.0086 17.5639 24.2559 17.6623 24.4678C17.7608 24.6819 17.9008 24.8453 18.0802 24.9601C18.2597 25.0749 18.4588 25.1323 18.6973 25.1323C18.9358 25.1323 19.1437 25.0749 19.3209 24.9601C19.5003 24.8453 19.6382 24.6797 19.7345 24.4634ZM19.2837 22.6974C19.4237 22.8872 19.4938 23.1565 19.4938 23.5097L19.496 23.5119V23.7327C19.4916 24.0771 19.4216 24.3398 19.2837 24.5252C19.148 24.7084 18.9511 24.8011 18.7017 24.8011C18.4522 24.8011 18.2553 24.7018 18.1131 24.5075C17.9708 24.3111 17.8986 24.044 17.8986 23.7018V23.4832C17.9008 23.1477 17.9752 22.885 18.1153 22.6974C18.2553 22.5097 18.4435 22.4148 18.6951 22.4148C18.9467 22.4148 19.1437 22.5097 19.2837 22.6974ZM19.2946 21.7415C19.3778 21.651 19.4194 21.5318 19.4194 21.3839L19.4128 21.3817L19.1612 21.3574C19.1612 21.4192 19.1437 21.4722 19.1043 21.5186C19.0671 21.5649 19.0168 21.587 18.9599 21.587C18.9183 21.587 18.8811 21.5804 18.8461 21.5693C18.8111 21.5583 18.7629 21.5318 18.6973 21.4921C18.6338 21.4523 18.5813 21.4259 18.5441 21.4126C18.5069 21.3994 18.4654 21.3927 18.4172 21.3927C18.2925 21.3927 18.1875 21.4413 18.1065 21.5362C18.0255 21.6312 17.984 21.7526 17.984 21.8983L18.2356 21.9115C18.2356 21.8453 18.2553 21.7901 18.2947 21.7481C18.3341 21.7062 18.3822 21.6841 18.4369 21.6841C18.4741 21.6841 18.5091 21.6885 18.5376 21.6974C18.5682 21.7062 18.6141 21.7327 18.6798 21.7746C18.7454 21.8166 18.7979 21.8453 18.8395 21.8585C18.8811 21.8718 18.9292 21.8784 18.9839 21.8784C19.1087 21.8784 19.2115 21.832 19.2946 21.7415ZM22.1305 23.7171H20.8526V24.7701H22.3362V25.0902H20.4631V22.1167H22.3143V22.4368H20.8504V23.3948H22.1283V23.7149L22.1305 23.7171ZM22.9597 23.4127C23.1129 23.5517 23.3558 23.6709 23.6884 23.7681L23.6906 23.7725C23.9575 23.8498 24.1413 23.9292 24.242 24.0087C24.3426 24.0882 24.3929 24.2007 24.3929 24.3464C24.3929 24.4921 24.3382 24.6069 24.2288 24.6908C24.1194 24.7747 23.9619 24.8166 23.7562 24.8166C23.5352 24.8166 23.3602 24.7637 23.2289 24.6599C23.0976 24.5562 23.0319 24.4127 23.0319 24.2339H22.6425C22.6425 24.406 22.6906 24.5606 22.7847 24.6974C22.8788 24.8343 23.0144 24.9425 23.1895 25.0197C23.3645 25.097 23.5549 25.1367 23.7562 25.1367C24.0669 25.1367 24.3164 25.0639 24.5023 24.9182C24.6883 24.7747 24.7824 24.5804 24.7824 24.3398C24.7824 24.1875 24.7496 24.0573 24.6818 23.9447C24.6139 23.8321 24.5111 23.735 24.3732 23.6511C24.2354 23.5672 24.0428 23.4899 23.7978 23.4215C23.5527 23.3531 23.3798 23.2758 23.277 23.1919C23.1742 23.108 23.1238 23.0065 23.1238 22.8851C23.1238 22.7328 23.1764 22.6158 23.2836 22.5297C23.3908 22.4436 23.5396 22.4016 23.7321 22.4016C23.9378 22.4016 24.0975 22.4524 24.2113 22.5562C24.3251 22.6599 24.382 22.8012 24.382 22.9822H24.7737C24.7737 22.8188 24.7277 22.6665 24.6424 22.5275C24.557 22.3884 24.4323 22.2802 24.2748 22.2007C24.1172 22.1213 23.9356 22.0815 23.7343 22.0815C23.4367 22.0815 23.196 22.1588 23.0101 22.3111C22.8241 22.4634 22.7322 22.6577 22.7322 22.8917C22.7322 23.097 22.8066 23.2736 22.9597 23.4127ZM26.3053 25.0927V22.1191H27.1368C27.3928 22.1191 27.6203 22.1765 27.8173 22.2913C28.0142 22.4061 28.1674 22.5673 28.2746 22.7792C28.3818 22.9911 28.4365 23.2317 28.4365 23.5055V23.6953C28.4365 23.9757 28.384 24.2207 28.2768 24.4326C28.1696 24.6445 28.0164 24.8057 27.8173 24.9183C27.6182 25.0308 27.3862 25.0882 27.1215 25.0927H26.3053ZM26.6948 22.4392V24.7704H27.104C27.4037 24.7704 27.6357 24.6754 27.8041 24.4878C27.9704 24.3002 28.0536 24.033 28.0536 23.6843V23.5099C28.0536 23.1721 27.9748 22.9094 27.8173 22.7218C27.6597 22.5342 27.4365 22.4392 27.1477 22.437H26.6948V22.4392ZM31.1433 24.4632C31.2417 24.2469 31.2899 23.993 31.2899 23.7016V23.514C31.2899 23.2248 31.2395 22.9709 31.1433 22.7524C31.047 22.5338 30.907 22.3661 30.7275 22.2513C30.5481 22.1365 30.3359 22.0791 30.1039 22.0791C29.872 22.0791 29.6641 22.1365 29.4847 22.2535C29.3053 22.3705 29.1652 22.5383 29.0668 22.7568C28.9661 22.9753 28.918 23.227 28.918 23.514V23.7281C28.9202 24.0085 28.9727 24.2557 29.0711 24.4676C29.1696 24.6818 29.3096 24.8451 29.4891 24.9599C29.6685 25.0747 29.8676 25.1321 30.1061 25.1321C30.3446 25.1321 30.5525 25.0747 30.7297 24.9599C30.9091 24.8451 31.047 24.6795 31.1433 24.4632ZM30.6947 22.6972C30.8347 22.887 30.9048 23.1564 30.9048 23.5096L30.907 23.5118V23.7325C30.9026 24.0769 30.8326 24.3396 30.6947 24.525C30.559 24.7082 30.3621 24.801 30.1127 24.801C29.8632 24.801 29.6663 24.7016 29.5241 24.5074C29.3818 24.3109 29.3096 24.0438 29.3096 23.7016V23.4831C29.3118 23.1475 29.3862 22.8848 29.5263 22.6972C29.6663 22.5096 29.8545 22.4146 30.1061 22.4146C30.3577 22.4146 30.5547 22.5096 30.6947 22.6972ZM35.0665 24.1497L35.0663 24.152H34.6749C34.6377 24.397 34.5611 24.5692 34.4451 24.6685C34.3292 24.7678 34.165 24.8164 33.9484 24.8164C33.7077 24.8164 33.5217 24.7193 33.3883 24.5294C33.2526 24.3396 33.187 24.0813 33.187 23.759V23.4698C33.187 23.1277 33.2592 22.865 33.3992 22.6795C33.5414 22.4941 33.7362 22.4014 33.9834 22.4014C34.1869 22.4014 34.3445 22.4544 34.4561 22.5603C34.5677 22.6663 34.6421 22.8385 34.6749 23.0769H35.0665C35.0359 22.7634 34.9243 22.5206 34.7361 22.344C34.548 22.1674 34.2963 22.0791 33.9834 22.0791C33.7471 22.0791 33.5393 22.1343 33.3598 22.2469C33.1804 22.3595 33.0426 22.5206 32.9441 22.7303C32.8456 22.94 32.7975 23.1829 32.7975 23.4588V23.7458C32.7975 24.1674 32.9025 24.5052 33.1126 24.7568C33.3204 25.0085 33.6005 25.1343 33.9484 25.1343C34.2701 25.1343 34.5261 25.0482 34.7208 24.8782C34.9151 24.7064 35.0288 24.4643 35.0663 24.152H35.0665V24.1497ZM37.7163 24.4632C37.8147 24.2469 37.8629 23.993 37.8629 23.7016V23.514C37.8629 23.2248 37.8125 22.9709 37.7163 22.7524C37.62 22.5338 37.48 22.3661 37.3005 22.2513C37.1211 22.1365 36.9089 22.0791 36.6769 22.0791C36.445 22.0791 36.2371 22.1365 36.0577 22.2535C35.8783 22.3705 35.7382 22.5383 35.6398 22.7568C35.5391 22.9753 35.491 23.227 35.491 23.514V23.7281C35.4932 24.0085 35.5457 24.2557 35.6441 24.4676C35.7426 24.6818 35.8826 24.8451 36.0621 24.9599C36.2415 25.0747 36.4406 25.1321 36.6791 25.1321C36.9176 25.1321 37.1255 25.0747 37.3027 24.9599C37.4821 24.8451 37.62 24.6795 37.7163 24.4632ZM37.2677 22.6972C37.4077 22.887 37.4778 23.1564 37.4778 23.5096L37.4799 23.5118V23.7325C37.4756 24.0769 37.4056 24.3396 37.2677 24.525C37.132 24.7082 36.9351 24.801 36.6857 24.801C36.4362 24.801 36.2393 24.7016 36.0971 24.5074C35.9548 24.3109 35.8826 24.0438 35.8826 23.7016V23.4831C35.8848 23.1475 35.9592 22.8848 36.0993 22.6972C36.2393 22.5096 36.4275 22.4146 36.6791 22.4146C36.9307 22.4146 37.1277 22.5096 37.2677 22.6972ZM40.7118 25.0927H40.3202L38.8366 22.8013V25.0927H38.4471V22.1191H38.8366L40.3245 24.4194V22.1191H40.7118V25.0927ZM41.5412 23.4127C41.6943 23.5517 41.9372 23.6709 42.2698 23.7681L42.272 23.7725C42.5389 23.8498 42.7227 23.9292 42.8234 24.0087C42.924 24.0882 42.9744 24.2007 42.9744 24.3464C42.9744 24.4921 42.9197 24.6069 42.8103 24.6908C42.7008 24.7747 42.5433 24.8166 42.3376 24.8166C42.1166 24.8166 41.9416 24.7637 41.8103 24.6599C41.679 24.5562 41.6134 24.4127 41.6134 24.2339H41.2239C41.2239 24.406 41.272 24.5606 41.3661 24.6974C41.4602 24.8343 41.5959 24.9425 41.7709 25.0197C41.9459 25.097 42.1363 25.1367 42.3376 25.1367C42.6483 25.1367 42.8978 25.0639 43.0838 24.9182C43.2698 24.7747 43.3638 24.5804 43.3638 24.3398C43.3638 24.1875 43.331 24.0573 43.2632 23.9447C43.1954 23.8321 43.0925 23.735 42.9547 23.6511C42.8168 23.5672 42.6243 23.4899 42.3792 23.4215C42.1341 23.3531 41.9613 23.2758 41.8584 23.1919C41.7556 23.108 41.7053 23.0065 41.7053 22.8851C41.7053 22.7328 41.7578 22.6158 41.865 22.5297C41.9722 22.4436 42.121 22.4016 42.3136 22.4016C42.5192 22.4016 42.679 22.4524 42.7928 22.5562C42.9065 22.6599 42.9634 22.8012 42.9634 22.9822H43.3551C43.3551 22.8188 43.3091 22.6665 43.2238 22.5275C43.1385 22.3884 43.0137 22.2802 42.8562 22.2007C42.6987 22.1213 42.517 22.0815 42.3157 22.0815C42.0182 22.0815 41.7775 22.1588 41.5915 22.3111C41.4055 22.4634 41.3136 22.6577 41.3136 22.8917C41.3136 23.097 41.388 23.2736 41.5412 23.4127ZM45.9348 22.1191V24.1412C45.9348 24.4216 45.8451 24.6512 45.6722 24.83C45.4994 25.0088 45.2631 25.1081 44.9677 25.1302L44.8648 25.1346C44.5432 25.1346 44.285 25.0463 44.0946 24.8719C43.9021 24.6953 43.8058 24.4547 43.8036 24.1478V22.1213H44.1887V24.1346C44.1887 24.3487 44.2478 24.5165 44.3659 24.6357C44.4841 24.7549 44.6504 24.8145 44.867 24.8145C45.0836 24.8145 45.2543 24.7549 45.3725 24.6357C45.4884 24.5165 45.5475 24.3509 45.5475 24.1346V22.1191H45.9348ZM48.0135 24.5452L47.0508 22.1191H47.0486H46.5475V25.0927H46.937V23.9359L46.8976 22.6931L47.8625 25.0949H48.1601L49.1273 22.6865L49.0901 23.9359V25.0927H49.4795V22.1191H48.9763L48.0135 24.5452ZM50.5845 25.0927H50.1951V22.1191H50.5845V25.0927ZM51.2957 22.1191V25.0927H52.1118C52.3766 25.0882 52.6085 25.0308 52.8076 24.9183C53.0068 24.8057 53.1599 24.6445 53.2671 24.4326C53.3744 24.2207 53.4269 23.9757 53.4269 23.6953V23.5055C53.4269 23.2317 53.3722 22.9911 53.2649 22.7792C53.1577 22.5673 53.0046 22.4061 52.8076 22.2913C52.6107 22.1765 52.3831 22.1191 52.1271 22.1191H51.2957ZM51.6829 24.7704V22.4392V22.437H52.1359C52.4247 22.4392 52.6479 22.5342 52.8054 22.7218C52.963 22.9094 53.0418 23.1721 53.0418 23.5099V23.6843C53.0418 24.033 52.9586 24.3002 52.7923 24.4878C52.6238 24.6754 52.3919 24.7704 52.0921 24.7704H51.6829ZM56.2801 23.7016C56.2801 23.993 56.232 24.2469 56.1335 24.4632C56.0372 24.6795 55.8994 24.8451 55.72 24.9599C55.5427 25.0747 55.3348 25.1321 55.0963 25.1321C54.8578 25.1321 54.6587 25.0747 54.4793 24.9599C54.2999 24.8451 54.1598 24.6818 54.0614 24.4676C53.9629 24.2557 53.9104 24.0085 53.9082 23.7281V23.514C53.9082 23.227 53.9563 22.9753 54.057 22.7568C54.1555 22.5383 54.2955 22.3705 54.4749 22.2535C54.6544 22.1365 54.8622 22.0791 55.0942 22.0791C55.3261 22.0791 55.5383 22.1365 55.7178 22.2513C55.8972 22.3661 56.0372 22.5338 56.1335 22.7524C56.2298 22.9709 56.2801 23.2248 56.2801 23.514V23.7016ZM55.8928 23.5096C55.8928 23.1564 55.8228 22.887 55.6828 22.6972C55.5427 22.5096 55.3458 22.4146 55.0942 22.4146C54.8425 22.4146 54.6543 22.5096 54.5143 22.6972C54.3743 22.8848 54.2999 23.1475 54.2977 23.4831V23.7016C54.2977 24.0438 54.3699 24.3109 54.5121 24.5074C54.6543 24.7016 54.8513 24.801 55.1007 24.801C55.3502 24.801 55.5471 24.7082 55.6828 24.525C55.8206 24.3396 55.8906 24.0769 55.895 23.7325V23.5118L55.8928 23.5096ZM57.2517 23.8896H57.9431V23.8918L58.582 25.0949H59V25.0706L58.3085 23.8079C58.4858 23.7395 58.6236 23.6357 58.7221 23.4988C58.8205 23.362 58.8709 23.2008 58.8709 23.0154C58.8709 22.724 58.7811 22.501 58.6017 22.3487C58.4223 22.1964 58.1685 22.1191 57.8359 22.1191H56.86V25.0927H57.2517V23.8896ZM57.849 23.5695H57.2517V22.4392H57.8468C58.0525 22.4414 58.2079 22.49 58.3173 22.5893C58.4245 22.6887 58.4792 22.83 58.4792 23.0132C58.4792 23.181 58.4223 23.3156 58.3085 23.4172C58.1947 23.5187 58.0416 23.5695 57.849 23.5695Z" fill="#171716"/>
</svg>
